<svg width="100" height="100" viewBox="0 0 100 100" fill="none" xmlns="http://www.w3.org/2000/svg">
<mask id="path-1-inside-1_2044_265" fill="white">
<path d="M50 0C43.4339 7.82999e-08 36.9321 1.29329 30.8658 3.80602C24.7995 6.31876 19.2876 10.0017 14.6447 14.6447C10.0017 19.2876 6.31876 24.7996 3.80602 30.8658C1.29329 36.9321 0 43.4339 0 50C0 56.5661 1.29329 63.0679 3.80603 69.1342C6.31876 75.2005 10.0017 80.7124 14.6447 85.3553C19.2876 89.9983 24.7996 93.6813 30.8658 96.194C36.9321 98.7067 43.4339 100 50 100V97.5C43.7622 97.5 37.5855 96.2714 31.8225 93.8843C26.0596 91.4972 20.8232 87.9984 16.4124 83.5876C12.0017 79.1768 8.50282 73.9404 6.11572 68.1775C3.72862 62.4145 2.5 56.2378 2.5 50C2.5 43.7622 3.72862 37.5855 6.11572 31.8225C8.50282 26.0596 12.0016 20.8232 16.4124 16.4124C20.8232 12.0016 26.0596 8.50282 31.8225 6.11572C37.5855 3.72862 43.7622 2.5 50 2.5V0Z"/>
</mask>
<path d="M50 0C43.4339 7.82999e-08 36.9321 1.29329 30.8658 3.80602C24.7995 6.31876 19.2876 10.0017 14.6447 14.6447C10.0017 19.2876 6.31876 24.7996 3.80602 30.8658C1.29329 36.9321 0 43.4339 0 50C0 56.5661 1.29329 63.0679 3.80603 69.1342C6.31876 75.2005 10.0017 80.7124 14.6447 85.3553C19.2876 89.9983 24.7996 93.6813 30.8658 96.194C36.9321 98.7067 43.4339 100 50 100V97.5C43.7622 97.5 37.5855 96.2714 31.8225 93.8843C26.0596 91.4972 20.8232 87.9984 16.4124 83.5876C12.0017 79.1768 8.50282 73.9404 6.11572 68.1775C3.72862 62.4145 2.5 56.2378 2.5 50C2.5 43.7622 3.72862 37.5855 6.11572 31.8225C8.50282 26.0596 12.0016 20.8232 16.4124 16.4124C20.8232 12.0016 26.0596 8.50282 31.8225 6.11572C37.5855 3.72862 43.7622 2.5 50 2.5V0Z" fill="white" stroke="#E9F0FF" stroke-width="12" mask="url(#path-1-inside-1_2044_265)"/>
<mask id="path-2-inside-2_2044_265" fill="white">
<path d="M50 0C59.8891 1.17926e-07 69.5561 2.93245 77.7785 8.42652C86.001 13.9206 92.4096 21.7295 96.194 30.8658C99.9784 40.0021 100.969 50.0555 99.0393 59.7545C97.11 69.4536 92.348 78.3627 85.3553 85.3553C78.3627 92.348 69.4536 97.11 59.7545 99.0393C50.0555 100.969 40.0021 99.9784 30.8658 96.194C21.7295 92.4096 13.9206 86.001 8.42652 77.7785C2.93245 69.5561 -2.35852e-07 59.8891 0 50H2.5C2.5 59.3946 5.28583 68.5782 10.5052 76.3896C15.7246 84.2009 23.143 90.2891 31.8225 93.8843C40.502 97.4794 50.0527 98.4201 59.2668 96.5873C68.4809 94.7545 76.9446 90.2306 83.5876 83.5876C90.2306 76.9446 94.7545 68.4809 96.5873 59.2668C98.4201 50.0527 97.4794 40.502 93.8843 31.8225C90.2891 23.143 84.2009 15.7246 76.3896 10.5052C68.5783 5.28583 59.3946 2.5 50 2.5V0Z"/>
</mask>
<path d="M50 0C59.8891 1.17926e-07 69.5561 2.93245 77.7785 8.42652C86.001 13.9206 92.4096 21.7295 96.194 30.8658C99.9784 40.0021 100.969 50.0555 99.0393 59.7545C97.11 69.4536 92.348 78.3627 85.3553 85.3553C78.3627 92.348 69.4536 97.11 59.7545 99.0393C50.0555 100.969 40.0021 99.9784 30.8658 96.194C21.7295 92.4096 13.9206 86.001 8.42652 77.7785C2.93245 69.5561 -2.35852e-07 59.8891 0 50H2.5C2.5 59.3946 5.28583 68.5782 10.5052 76.3896C15.7246 84.2009 23.143 90.2891 31.8225 93.8843C40.502 97.4794 50.0527 98.4201 59.2668 96.5873C68.4809 94.7545 76.9446 90.2306 83.5876 83.5876C90.2306 76.9446 94.7545 68.4809 96.5873 59.2668C98.4201 50.0527 97.4794 40.502 93.8843 31.8225C90.2891 23.143 84.2009 15.7246 76.3896 10.5052C68.5783 5.28583 59.3946 2.5 50 2.5V0Z" fill="#2867F3" stroke="#2867F3" stroke-width="12" mask="url(#path-2-inside-2_2044_265)"/>
<path d="M42.8889 46.256C42.4242 46.7207 42.4242 47.466 42.8889 47.9307L49.167 54.2088C49.395 54.4367 49.7019 54.5595 50 54.5595C50.2981 54.5595 50.605 54.4455 50.833 54.2088L57.1111 47.9307C57.5758 47.466 57.5758 46.7207 57.1111 46.256C56.6463 45.7912 55.901 45.7912 55.4363 46.256L51.1837 50.5086V30.1837C51.1837 29.5261 50.6576 29 50 29C49.3424 29 48.8163 29.5261 48.8163 30.1837V50.5086L44.5637 46.256C44.099 45.7912 43.3449 45.7912 42.8889 46.256Z" fill="#2867F3"/>
<path d="M69.3516 55.9536L65.2305 41.0476C65.1341 40.7056 64.8973 40.4338 64.5817 40.2847L64.4677 40.2321C64.3098 40.162 64.1432 40.1269 63.9767 40.1269H56.5499C55.8923 40.1269 55.3662 40.653 55.3662 41.3106C55.3662 41.9682 55.8923 42.4943 56.5499 42.4943H63.1787L66.6597 55.1031H57.4531C56.7954 55.1031 56.2693 55.6292 56.2693 56.2868V57.3565C56.2693 58.9261 54.9979 60.1975 53.4284 60.1975H46.2034C44.6338 60.1975 43.3624 58.9261 43.3624 57.3565V56.2868C43.3624 55.6292 42.8364 55.1031 42.1787 55.1031H33.3315L36.8301 42.468H43.4589C44.1165 42.468 44.6426 41.9419 44.6426 41.2843C44.6426 40.6267 44.1165 40.1006 43.4589 40.1006H36.0234C35.8568 40.1006 35.6902 40.1357 35.5324 40.2058L35.4184 40.2584C35.1027 40.4075 34.8572 40.6793 34.7695 41.0213L30.6485 55.9273C30.6222 56.0325 30.6046 56.1378 30.6046 56.243V62.4597C30.6046 67.1682 34.4363 71 39.1449 71H60.8551C65.5637 71 69.3954 67.1682 69.3954 62.4597V56.2693C69.3954 56.1553 69.3867 56.0501 69.3516 55.9536ZM67.028 62.4597C67.028 65.8618 64.2572 68.6325 60.8551 68.6325H39.1449C35.7428 68.6325 32.972 65.8618 32.972 62.4597V57.4705H41.0126C41.0739 60.2851 43.3888 62.5561 46.2209 62.5561H53.446C56.2781 62.5561 58.5929 60.2851 58.6543 57.4705H67.0455V62.4597H67.028Z" fill="#2867F3"/>
</svg>
