<svg width="87" height="29" viewBox="0 0 87 29" fill="none" xmlns="http://www.w3.org/2000/svg">
<path d="M0.75 12H3.90909V8.54545H5.65909C8.3125 8.54545 10.0909 6.98295 10.0909 4.47727C10.0909 2 8.35795 0.363636 5.77273 0.363636H0.75V12ZM3.90909 6.09091V2.88636H5.02273C6.13068 2.88636 6.79545 3.47727 6.79545 4.47727C6.79545 5.47159 6.13068 6.09091 5.02273 6.09091H3.90909ZM15.9298 12.1591C18.3502 12.1591 19.907 11 20.2025 9.18182H17.3389C17.157 9.67614 16.64 9.95455 15.998 9.95455C15.0661 9.95455 14.5207 9.34091 14.5207 8.5V8.36364H20.2025V7.63636C20.2025 4.85795 18.498 3.15909 15.8616 3.15909C13.157 3.15909 11.4298 4.95455 11.4298 7.65909C11.4298 10.483 13.1343 12.1591 15.9298 12.1591ZM14.5207 6.63636C14.5377 5.88068 15.1627 5.36364 15.9298 5.36364C16.7082 5.36364 17.2991 5.88636 17.3161 6.63636H14.5207ZM24.5541 12.1364C25.6905 12.1364 26.5485 11.75 27.0769 10.7727H27.1451V12H30.0769V6.02273C30.0769 4.40909 28.5485 3.15909 26.0541 3.15909C23.4462 3.15909 22.1621 4.52273 22.0541 6.11364H24.9405C25.0144 5.57386 25.4121 5.31818 26.0087 5.31818C26.5541 5.31818 26.9405 5.56818 26.9405 6.02273V6.04545C26.9405 6.55114 26.3837 6.71023 24.9178 6.81818C23.1166 6.94886 21.7132 7.67614 21.7132 9.59091C21.7132 11.3295 22.8837 12.1364 24.5541 12.1364ZM25.5769 10.1591C25.0428 10.1591 24.6678 9.89773 24.6678 9.40909C24.6678 8.96023 24.986 8.61364 25.7132 8.5C26.2132 8.42045 26.6337 8.31818 26.9632 8.18182V8.90909C26.9632 9.70455 26.2871 10.1591 25.5769 10.1591ZM31.8745 12H32.7836C34.5791 12 35.8518 10.9545 36.0109 7.97727L36.1473 5.61364H37.6018V12H40.5564V3.27273H33.3745L33.2382 7.13636C33.17 8.86364 32.8064 9.63636 32.1245 9.63636H31.8518L31.8745 12ZM45.6538 5.63636V3.27273H42.6992V12H47.131C49.6197 12 51.1424 10.8125 51.1538 8.86364C51.1424 6.85795 49.6197 5.63636 47.131 5.63636H45.6538ZM45.6538 7.97727H47.131C47.7731 7.97727 48.2333 8.33523 48.2447 8.84091C48.2333 9.31818 47.7731 9.65909 47.131 9.65909H45.6538V7.97727ZM56.0594 3.27273H53.1048V12H56.0594V8.77273H58.2412V12H61.173V3.27273H58.2412V6.43182H56.0594V3.27273ZM66.2619 5.63636V3.27273H63.3073V12H67.7391C70.2278 12 71.7505 10.8125 71.7619 8.86364C71.7505 6.85795 70.2278 5.63636 67.7391 5.63636H66.2619ZM72.3982 12H75.5346V3.27273H72.3982V12ZM66.2619 7.97727H67.7391C68.3812 7.97727 68.8414 8.33523 68.8528 8.84091C68.8414 9.31818 68.3812 9.65909 67.7391 9.65909H66.2619V7.97727ZM80.7144 8V3.27273H77.7598V12H80.7144L83.1462 7.25V12H86.1007V3.27273H83.1462L80.7144 8ZM83.0553 0.136363C83.0496 0.636363 82.7314 1.09091 81.9189 1.09091C81.0723 1.09091 80.7542 0.613636 80.7598 0.136363H78.8053C78.7996 1.61364 80.0042 2.56818 81.9189 2.56818C83.8223 2.56818 85.0269 1.61364 85.0326 0.136363H83.0553Z" fill="#3B3D42"/>
<path d="M0.75 28H5.09091C8.02273 28 9.97727 26.4091 9.97727 24.0909C9.97727 21.7727 8.02273 20.2727 5.09091 20.2727H3.90909V18.9091H8.93182V16.3636H0.75V28ZM3.90909 25.5227V22.6818H5.09091C6.22727 22.6818 6.84091 23.2727 6.84091 24.0682C6.84091 24.9091 6.22727 25.5227 5.09091 25.5227H3.90909ZM14.7338 24V19.2727H11.7792V28H14.7338L17.1656 23.25V28H20.1201V19.2727H17.1656L14.7338 24ZM21.9703 25.3636C22.0385 27.2557 23.6919 28.1591 25.9476 28.1591C28.2544 28.1591 29.9022 27.233 29.9022 25.5909C29.9022 24.2898 28.8851 23.608 27.7658 23.5455V23.4545C29.0215 23.1818 29.6749 22.5227 29.6749 21.6364C29.6749 20.0227 28.2658 19.1591 25.9249 19.1591C23.8794 19.1591 22.2203 20.1364 22.2203 21.8182H25.1749C25.1749 21.4432 25.5442 21.1818 26.0613 21.1818C26.5783 21.1818 26.9476 21.5 26.9476 21.9545C26.9476 22.3523 26.5726 22.6364 26.0385 22.6364H24.9476V24.4773H26.0385C26.584 24.4773 26.9703 24.8068 26.9703 25.2727C26.9703 25.767 26.5442 26.1136 25.9476 26.1136C25.351 26.1136 24.9249 25.8011 24.9249 25.3636H21.9703ZM34.7169 19.2727H31.7623V28H34.7169V24.7727H36.8987V28H39.8305V19.2727H36.8987V22.4318H34.7169V19.2727ZM46.1466 28.1591C48.5671 28.1591 50.1239 27 50.4194 25.1818H47.5557C47.3739 25.6761 46.8569 25.9545 46.2148 25.9545C45.283 25.9545 44.7376 25.3409 44.7376 24.5V24.3636H50.4194V23.6364C50.4194 20.858 48.7148 19.1591 46.0785 19.1591C43.3739 19.1591 41.6466 20.9545 41.6466 23.6591C41.6466 26.483 43.3512 28.1591 46.1466 28.1591ZM44.7376 22.6364C44.7546 21.8807 45.3796 21.3636 46.1466 21.3636C46.9251 21.3636 47.516 21.8864 47.533 22.6364H44.7376ZM56.5438 28.1591C59.129 28.1591 60.7142 26.6761 60.7483 24.3636H57.8392C57.771 25.2784 57.2767 25.7727 56.5892 25.7727C55.7653 25.7727 55.2256 25.0682 55.2256 23.6364C55.2256 22.2045 55.7653 21.5 56.5892 21.5C57.2824 21.5 57.754 21.9943 57.8392 22.9091H60.7483C60.7313 20.6364 59.1119 19.1591 56.5438 19.1591C53.7028 19.1591 52.021 20.9773 52.021 23.6591C52.021 26.3409 53.7028 28.1591 56.5438 28.1591Z" fill="#2867F3"/>
</svg>
