<svg width="86" height="86" viewBox="0 0 86 86" fill="none" xmlns="http://www.w3.org/2000/svg">
<g clip-path="url(#clip0_48_46)">
<path d="M73.3857 12.6054C65.2652 4.48482 54.4732 0.00878906 42.9912 0.00878906C31.5092 0.00878906 20.7171 4.48482 12.5966 12.6054C4.47603 20.7259 0 31.5179 0 42.9999C0 54.4819 4.47603 65.274 12.5966 73.3945C20.7171 81.5151 31.5092 85.9911 42.9912 85.9911C49.661 85.9911 55.747 84.7527 60.5768 82.4351C65.159 80.2236 68.4851 77.0567 69.9535 73.5361C71.705 69.3077 70.7143 64.9024 67.2467 61.4348L67.1228 61.311C67.1759 61.2402 67.2467 61.1872 67.2997 61.1341C69.7766 58.5334 69.7766 55.1189 67.2644 52.6066L61.143 46.4852C59.9399 45.2468 58.4892 44.5745 56.95 44.5745C55.4108 44.5745 53.9424 45.2291 52.704 46.4675L49.5194 49.6521C49.3602 49.5636 49.2187 49.4929 49.0594 49.4221C48.6702 49.2275 48.3164 49.0506 48.0156 48.8559C44.778 46.8037 41.8412 44.1145 39.0282 40.6646C37.7898 39.1077 36.9405 37.7809 36.3036 36.4717C37.0998 35.7286 37.8428 34.9679 38.5682 34.2248C38.869 33.9063 39.1874 33.6056 39.5059 33.2871C42.1066 30.6864 42.1066 27.325 39.5059 24.7243L36.4806 21.699C36.1267 21.3451 35.7906 21.009 35.4544 20.6552C34.7821 19.9652 34.0922 19.2575 33.3491 18.5675C32.1461 17.3822 30.713 16.763 29.1915 16.763C27.67 16.763 26.2193 17.3822 24.9809 18.5675C24.9632 18.5852 24.9632 18.5852 24.9455 18.6029L21.1417 22.4067C19.6202 23.9281 18.7357 25.8035 18.5587 27.9619C18.2934 31.3233 19.2664 34.4371 20.0272 36.4717C21.8494 41.39 24.574 45.9545 28.6254 50.8374C33.5437 56.7111 39.4705 61.3641 46.2464 64.6371C48.8471 65.8755 52.3324 67.3262 56.26 67.5916C56.5077 67.6093 56.7554 67.6093 57.0031 67.6093C59.7453 67.6093 62.063 66.6186 63.8675 64.6548C63.8852 64.6371 63.9206 64.6017 63.9383 64.584C63.9914 64.5132 64.0621 64.4425 64.1329 64.3717L64.239 64.4778C66.5036 66.7424 67.1228 69.3254 66.0259 71.9615C63.9914 76.7914 56.0831 81.7451 42.9912 81.7451C21.6194 81.7451 4.24604 64.3717 4.24604 42.9999C4.24604 21.6282 21.6194 4.25483 42.9912 4.25483C64.3629 4.25483 81.7363 21.6282 81.7363 42.9999C81.7363 46.5206 81.2586 49.9882 80.3386 53.332C80.0202 54.4643 80.6925 55.6319 81.8247 55.9504C82.957 56.2688 84.1247 55.5965 84.4431 54.4643C85.4692 50.749 86 46.8922 86 42.9999C85.9823 31.5179 81.5063 20.7259 73.3857 12.6054ZM60.7184 61.771C59.7099 62.8502 58.5777 63.3279 57.0031 63.3279C56.8439 63.3279 56.6846 63.3279 56.5254 63.3102C53.3409 63.0979 50.3333 61.8418 48.0864 60.7626C41.8766 57.7549 36.4275 53.4912 31.8984 48.0775C28.1654 43.5838 25.6708 39.4262 24.0078 34.9679C23.0171 32.2787 22.6455 30.2264 22.7871 28.2803C22.8932 27.1304 23.3178 26.1927 24.1494 25.3789L27.9531 21.5928C28.2539 21.3098 28.7138 20.9736 29.2092 20.9736C29.7046 20.9736 30.1292 21.2921 30.3946 21.5751C30.4123 21.5928 30.43 21.6105 30.4476 21.6282C31.1199 22.2474 31.7568 22.902 32.4291 23.592C32.783 23.9458 33.1368 24.3174 33.4906 24.6712L36.5159 27.6965C37.4536 28.6342 37.4536 29.3242 36.5159 30.2618C36.1975 30.5803 35.879 30.8987 35.5606 31.2172C34.6229 32.1549 33.756 33.0571 32.8007 33.9063C32.7653 33.924 32.7476 33.9594 32.7122 33.9948C31.3853 35.3217 31.8453 36.7017 31.9868 37.1616C32.0045 37.2147 32.0222 37.2501 32.0399 37.3032C32.8537 39.267 33.986 41.1069 35.7198 43.3007L35.7375 43.3184C38.8513 47.1575 42.1243 50.1298 45.7511 52.4297C46.2288 52.7305 46.7064 52.9781 47.1664 53.2081C47.5556 53.4027 47.9095 53.5797 48.2102 53.7743C48.2633 53.8097 48.3341 53.845 48.4049 53.8804C48.8648 54.1104 49.3248 54.2166 49.7848 54.2166C50.5633 54.2166 51.2886 53.8981 51.9078 53.2612L55.7116 49.4575C56.0123 49.1567 56.4546 48.8029 56.95 48.8029C57.41 48.8029 57.8346 49.139 58.1 49.4221C58.1177 49.4398 58.1177 49.4398 58.1354 49.4575L64.2567 55.5788C65.1236 56.4457 65.1236 57.2419 64.2214 58.1795L64.2037 58.1972C63.7967 58.6395 63.3545 59.0641 62.8768 59.5241C62.1691 60.2141 61.426 60.9395 60.7184 61.771Z" fill="#2867F3"/>
</g>
<defs>
<clipPath id="clip0_48_46">
<rect width="86" height="86" fill="white"/>
</clipPath>
</defs>
</svg>
