<svg width="224" height="57" viewBox="0 0 224 57" fill="none" xmlns="http://www.w3.org/2000/svg"><path d="M58.8452 56.3664H55.4136V46.3507H61.3247V47.3448H56.604V50.5811H58.8315C60.8486 50.5811 62.1372 51.4209 62.1372 53.4249V53.4806C62.1372 55.3712 60.8486 56.3664 58.8452 56.3664ZM58.8174 55.4132C60.2739 55.4132 60.9463 54.6993 60.9463 53.4806V53.4249C60.9463 52.1915 60.2603 51.5333 58.7051 51.5333H56.604V55.4132H58.8174Z" fill="#1F232B"></path><path d="M63.2417 54.3351C63.2417 52.6398 65.0347 52.0656 66.9116 52.0656H67.9624V51.5334C67.9624 50.3713 67.5142 49.8811 66.3936 49.8811C65.3848 49.8811 64.8248 50.301 64.7124 51.1975H63.5498C63.7041 49.5305 65.0347 48.9143 66.4497 48.9143C67.8501 48.9143 69.125 49.4885 69.125 51.5334V56.3664H67.9624V55.4416C67.416 56.1281 66.7578 56.4924 65.6792 56.4924C64.3203 56.4923 63.2417 55.8341 63.2417 54.3351ZM67.9624 53.8029V52.8918H66.9536C65.4829 52.8918 64.4043 53.2561 64.4043 54.3352C64.4043 55.0911 64.7686 55.5676 65.791 55.5676C67.0239 55.5675 67.9624 54.9377 67.9624 53.8029Z" fill="#1F232B"></path><path d="M75.8486 53.1027H72.249V56.3664H71.0864V49.0402H72.249V52.1222H75.8486V49.0402H77.0117V56.3664H75.8486V53.1027Z" fill="#1F232B"></path><path d="M80.1812 52.6261V56.3663H79.0186V49.0401H80.1812V52.4581L83.2208 49.0401H84.5797L81.442 52.4864L84.8458 56.3663H83.4308L80.1812 52.6261Z" fill="#1F232B"></path><path d="M21.999 0C9.84955 0 0 9.84955 0 21.9973C0 34.1456 9.84955 44 21.999 44C34.1469 44 44.0014 34.1456 44.0014 21.9973C44.0014 9.84955 34.1469 0 21.999 0ZM18.878 31.3566L17.2563 36.1652C11.1616 34.1099 7.06729 28.3775 7.06729 21.9007C7.06729 15.4164 11.1695 9.68197 17.2746 7.63213L18.8904 12.4436C14.854 13.7986 12.1425 17.5991 12.1425 21.9007C12.1425 26.1977 14.8495 29.9977 18.878 31.3566ZM26.4451 36.2623L24.9256 31.4201C29.0725 30.1186 31.8589 26.2929 31.8589 21.9007C31.8589 17.5634 29.1171 13.7531 25.0356 12.4194L26.6127 7.59498C32.7862 9.61265 36.9341 15.3619 36.9341 21.9007C36.9341 28.5222 32.7188 34.2938 26.4451 36.2623Z" fill="#02BAE8"></path><path d="M220.306 25.5492L222.711 28.4296C220.253 31.0194 217.135 31.7329 214.651 31.7329C212.299 31.7329 210.528 31.3629 209.075 30.623C205.877 29.0374 204.265 25.8134 204.265 21.9024C204.265 15.9565 208.282 11.6226 214.201 11.6226C220.755 11.6226 223.953 16.5379 223.53 22.933L208.52 22.9594C208.599 24.5714 209.524 26.1041 210.819 26.8705C211.902 27.5311 213.171 27.8747 214.915 27.8747C216.738 27.8747 218.641 27.2405 220.306 25.5492ZM208.573 19.4976H219.169C218.905 17.1721 217.003 15.2166 213.937 15.2166C210.819 15.2166 208.943 17.3835 208.573 19.4976ZM107.836 31.2308H113.253L104.744 21.3738L113.121 12.0983H107.783L101.388 19.524H99.5118V12.0983H95.3629V31.2308H99.5118V23.6201H101.415L107.836 31.2308ZM125.462 15.5337C122.001 15.5337 119.701 18.2291 119.701 21.6645C119.701 25.0999 122.001 27.7954 125.462 27.7954C129.003 27.7954 131.197 25.1528 131.197 21.6645C131.197 18.2556 129.056 15.5337 125.462 15.5337ZM126.176 11.6226C131.567 11.6226 135.531 15.8508 135.531 21.6645C135.531 27.399 131.593 31.7329 126.176 31.7329C123.533 31.7329 121.472 30.8344 119.992 29.2224V39.1851H115.817V12.0983H119.886V14.3973C121.472 12.4947 123.533 11.6226 126.176 11.6226ZM180.64 12.0983H163.516V15.9301H169.99V31.2308H174.166V15.9301H180.64V12.0983ZM92.4825 12.0983H75.3583V15.9301H81.8327V31.2308H86.008V15.9301H92.4825V12.0983ZM70.2845 21.6645C70.2845 18.097 67.7476 15.4544 64.3122 15.4544C60.9032 15.4544 58.3399 18.0177 58.3399 21.6645C58.3399 25.2585 60.8239 27.9011 64.3122 27.9011C67.7212 27.9011 70.2845 25.2849 70.2845 21.6645ZM54.0588 21.6645C54.0588 15.9301 58.4984 11.6226 64.3122 11.6226C70.1259 11.6226 74.5655 15.9301 74.5655 21.6645C74.5655 27.399 70.1259 31.7329 64.3122 31.7329C58.4984 31.7329 54.0588 27.399 54.0588 21.6645ZM200.883 12.0983V31.2308H196.787V18.8898L186.771 31.2308H183.494V12.0983H187.59V24.4129L197.632 12.0983H200.883ZM160.662 31.2308H156.513V12.0983H160.662V31.2308ZM150.039 24.7035C150.039 22.9858 148.849 21.7967 147.211 21.7967H143.009V27.6897H147.211C148.849 27.6897 150.039 26.4212 150.039 24.7035ZM154.161 24.7035C154.161 28.5353 151.386 31.2308 147.343 31.2308H138.913V12.0983H143.036V18.282H147.713C151.677 18.282 154.161 20.8453 154.161 24.7035Z" fill="#1F232B"></path></svg>