<svg width="82" height="82" viewBox="0 0 82 82" fill="none" xmlns="http://www.w3.org/2000/svg">
<path d="M76.5319 1.3667H5.46805C2.45311 1.3667 0 3.81997 0 6.83475V51.9333C0 52.6876 0.612277 53.2999 1.36661 53.2999H80.6332C81.3876 53.2999 81.9998 52.6876 81.9998 51.9333V6.83475C82 3.81997 79.5469 1.3667 76.5319 1.3667ZM79.2666 50.5667H2.73339V6.83475C2.73339 5.32592 3.96066 4.10009 5.46805 4.10009H76.5319C78.0393 4.10009 79.2666 5.32592 79.2666 6.83475V50.5667Z" fill="#6293FF"/>
<path d="M80.6334 50.5667H1.36661C0.612277 50.5667 0 51.1789 0 51.9333V58.7652C0 61.7802 2.45311 64.2333 5.46805 64.2333H76.5319C79.5469 64.2333 82 61.7802 82 58.7652V51.9333C82 51.1789 81.3877 50.5667 80.6334 50.5667ZM79.2666 58.7654C79.2666 60.2742 78.0393 61.5 76.5319 61.5H5.46805C3.96066 61.5 2.73339 60.2742 2.73339 58.7654V53.3H79.2668V58.7654H79.2666Z" fill="#6293FF"/>
<path d="M45.1001 56.0334H36.9001C36.1457 56.0334 35.5334 56.6457 35.5334 57.4001C35.5334 58.1544 36.1457 58.7667 36.9001 58.7667H45.1001C45.8544 58.7667 46.4667 58.1544 46.4667 57.4001C46.4667 56.6457 45.8544 56.0334 45.1001 56.0334Z" fill="#6293FF"/>
<path d="M75.1666 6.83337H6.83341C6.07907 6.83337 5.4668 7.44565 5.4668 8.19999V51.9334C5.4668 52.6877 6.07907 53.3 6.83341 53.3H75.1668C75.9211 53.3 76.5334 52.6877 76.5334 51.9334V8.19999C76.5334 7.44565 75.9211 6.83337 75.1666 6.83337ZM73.8 50.5666H8.20002V9.5666H73.8V50.5666Z" fill="#6293FF"/>
<path d="M58.7665 72.4333H23.2333C20.9729 72.4333 19.1333 74.2729 19.1333 76.5333C19.1333 78.7938 20.9729 80.6333 23.2333 80.6333H58.7667C61.0271 80.6333 62.8667 78.7938 62.8667 76.5333C62.8667 74.2729 61.027 72.4333 58.7665 72.4333ZM58.7665 77.9H23.2333C22.479 77.9 21.8667 77.2864 21.8667 76.5333C21.8667 75.7803 22.479 75.1667 23.2333 75.1667H58.7667C59.521 75.1667 60.1333 75.7803 60.1333 76.5333C60.1333 77.2864 59.521 77.9 58.7665 77.9Z" fill="#6293FF"/>
<path d="M56.0333 72.4335C51.4987 72.4335 49.1999 69.215 49.1999 62.8669C49.1999 62.1125 48.5877 61.5002 47.8333 61.5002H34.1667C33.4124 61.5002 32.8001 62.1125 32.8001 62.8669C32.8001 69.215 30.5014 72.4335 25.9667 72.4335C25.2124 72.4335 24.6001 73.0457 24.6001 73.8001C24.6001 74.5544 25.2124 75.1667 25.9667 75.1667H56.0333C56.7877 75.1667 57.3999 74.5544 57.3999 73.8001C57.3999 73.0457 56.7877 72.4335 56.0333 72.4335ZM32.6236 72.4335C34.306 70.5694 35.2968 67.7936 35.4963 64.2335H46.5048C46.7029 67.7936 47.6938 70.5694 49.3775 72.4335H32.6236Z" fill="#6293FF"/>
<path d="M65.3049 41.634L62.0059 38.335L63.8413 36.4996C64.1816 36.1592 64.3182 35.6645 64.2007 35.1985C64.0831 34.7324 63.7292 34.3634 63.2686 34.2241L49.6019 30.1241C49.1196 29.9791 48.5989 30.1117 48.2435 30.4671C47.8868 30.8225 47.7557 31.3445 47.9004 31.8256L52.0004 45.4922C52.1385 45.9541 52.5088 46.308 52.9748 46.4256C53.4395 46.5404 53.9356 46.4064 54.2759 46.0662L56.2084 44.1323L59.5074 47.4328C59.7631 47.6897 60.1116 47.8332 60.4737 47.8332C60.8358 47.8332 61.1843 47.6897 61.4399 47.4328L65.3048 43.5665C65.8392 43.0322 65.8392 42.1685 65.3049 41.634ZM60.4737 44.5341L57.4698 41.5288C57.1213 41.1803 56.6648 41.0067 56.2084 41.0067C55.7505 41.0067 55.2941 41.1816 54.947 41.5274L53.9603 42.5141L51.2474 33.4709L60.2906 36.1837L59.2328 37.2416C58.9416 37.534 58.7818 37.9222 58.7818 38.335C58.7818 38.7491 58.9431 39.1399 59.2355 39.4296L62.4061 42.6002L60.4737 44.5341Z" fill="#6293FF"/>
<path d="M57.3998 12.2999H19.1332C18.3789 12.2999 17.7666 12.9122 17.7666 13.6665V20.4999C17.7666 21.2543 18.3789 21.8665 19.1332 21.8665H57.3998C58.1542 21.8665 58.7664 21.2543 58.7664 20.4999V13.6665C58.7664 12.9122 58.1542 12.2999 57.3998 12.2999ZM56.0332 19.1333H20.4998V15.0333H56.0332V19.1333Z" fill="#6293FF"/>
<path d="M35.5334 27.3334H24.6C23.8457 27.3334 23.2334 27.9456 23.2334 28.7V34.1666C23.2334 34.9209 23.8457 35.5332 24.6 35.5332H35.5334C36.2877 35.5332 36.9 34.9209 36.9 34.1666V28.7C36.9 27.9456 36.2877 27.3334 35.5334 27.3334ZM34.1666 32.8H25.9666V30.0666H34.1666V32.8Z" fill="#6293FF"/>
<path d="M57.3998 12.2999H19.1332C18.3789 12.2999 17.7666 12.9122 17.7666 13.6665V39.6332C17.7666 40.3875 18.3789 40.9998 19.1332 40.9998H51.6682C52.1014 40.9998 52.5072 40.7962 52.7643 40.449C53.0226 40.1019 53.1019 39.6537 52.9774 39.2395L51.2473 33.4708L57.0078 35.1997C57.4219 35.3242 57.8702 35.2449 58.2158 34.9865C58.5629 34.7297 58.7666 34.3224 58.7666 33.8904V13.6665C58.7664 12.9122 58.1542 12.2999 57.3998 12.2999ZM56.0332 32.0538L49.6002 30.124C49.1178 29.9791 48.5972 30.1117 48.2418 30.4671C47.8851 30.8238 47.7539 31.3444 47.8987 31.827L49.8312 38.2667H20.4998V15.0333H56.0332V32.0538Z" fill="#6293FF"/>
</svg>
