<svg width="100" height="100" viewBox="0 0 100 100" fill="none" xmlns="http://www.w3.org/2000/svg">
<mask id="path-1-inside-1_2044_266" fill="white">
<path d="M100 50C100 77.6142 77.6142 100 50 100C22.3858 100 0 77.6142 0 50C0 22.3858 22.3858 0 50 0C77.6142 0 100 22.3858 100 50ZM2.5 50C2.5 76.2335 23.7665 97.5 50 97.5C76.2335 97.5 97.5 76.2335 97.5 50C97.5 23.7665 76.2335 2.5 50 2.5C23.7665 2.5 2.5 23.7665 2.5 50Z"/>
</mask>
<path d="M100 50C100 77.6142 77.6142 100 50 100C22.3858 100 0 77.6142 0 50C0 22.3858 22.3858 0 50 0C77.6142 0 100 22.3858 100 50ZM2.5 50C2.5 76.2335 23.7665 97.5 50 97.5C76.2335 97.5 97.5 76.2335 97.5 50C97.5 23.7665 76.2335 2.5 50 2.5C23.7665 2.5 2.5 23.7665 2.5 50Z" fill="#2867F3" stroke="#2867F3" stroke-width="12" mask="url(#path-1-inside-1_2044_266)"/>
<path d="M67.2614 30.7551C66.1325 29.6262 64.6331 29 63.0279 29C61.4227 29 59.9322 29.6262 58.7944 30.7551C58.3799 31.1697 58.3799 31.84 58.7944 32.2545C59.2089 32.669 59.8793 32.669 60.2938 32.2545C61.0258 31.5225 61.996 31.1256 63.0279 31.1256C64.0599 31.1256 65.03 31.5313 65.7621 32.2545C67.2703 33.7627 67.2703 36.2146 65.7621 37.7228C65.7356 37.7493 65.7092 37.7757 65.6915 37.8022C65.6651 37.8286 65.6386 37.8463 65.6121 37.8727L64.0069 39.478L55.0813 30.5611C54.6667 30.1466 53.9964 30.1466 53.5819 30.5611L39.9112 44.2318C39.4966 44.6464 39.4966 45.3167 39.9112 45.7312C40.114 45.9341 40.3874 46.0399 40.6609 46.0399C40.9343 46.0399 41.1989 45.9341 41.4105 45.7312L54.3316 32.8013L55.5399 34.0097L34.7957 54.7627C34.5928 54.9656 34.487 55.2302 34.487 55.5124C34.487 55.7946 34.6016 56.0592 34.7957 56.2621L35.466 56.9324L32.5113 59.8782C32.3085 60.0811 32.2026 60.3457 32.2026 60.6279C32.2026 60.9101 32.3173 61.1747 32.5113 61.3776L33.8255 62.6917L31.303 65.2142C30.8885 65.6287 30.8885 66.299 31.303 66.7136C31.5059 66.9164 31.7793 67.0223 32.0527 67.0223C32.3261 67.0223 32.5907 66.9164 32.8024 66.7136L35.3249 64.1911L36.639 65.5052C36.8419 65.7081 37.1065 65.8139 37.3887 65.8139C37.6709 65.8139 37.9355 65.6993 38.1384 65.5052L41.093 62.5506L41.7633 63.2209C41.9662 63.4238 42.2396 63.5296 42.513 63.5296C42.7864 63.5296 43.051 63.4238 43.2627 63.2209L67.1115 39.3721C67.138 39.3457 67.1644 39.3192 67.1821 39.2927C67.2085 39.2663 67.235 39.2486 67.2614 39.2222C69.5899 36.8761 69.5899 33.0836 67.2614 30.7551ZM37.38 63.2562L34.7517 60.6279L36.9566 58.4229L38.2708 59.7371L39.5849 61.0512L37.38 63.2562ZM42.5043 60.9719L41.834 60.3016L39.7701 58.2377L37.036 55.5036L57.0394 35.509L62.5076 40.9773L42.5043 60.9719Z" fill="#2867F3"/>
<path d="M66.0531 68.8833H32.0527C31.4706 68.8833 30.9943 69.3596 30.9943 69.9417C30.9943 70.5238 31.4706 71.0001 32.0527 71.0001H66.0531C66.6352 71.0001 67.1115 70.5238 67.1115 69.9417C67.1115 69.3596 66.6352 68.8833 66.0531 68.8833Z" fill="#2867F3"/>
</svg>
