<svg width="160" height="49" viewBox="0 0 160 49" fill="none" xmlns="http://www.w3.org/2000/svg">
<g clip-path="url(#clip0_29_138)">
<path d="M0.0639648 14.9893H29.2976V0.00732665H0.0639648C0.0639648 0.000357283 0.0639648 14.9899 0.0639648 14.9899V14.9893Z" fill="#A6A7A8"/>
<path d="M0.0639648 29.3856H29.305V14.6963H0.0639648C0.0639648 14.6893 0.0639648 29.3856 0.0639648 29.3856Z" fill="#918F90"/>
<path d="M5.16272 15.583H24.1851V13.7961H5.16272V15.583Z" fill="white"/>
<path d="M47.9573 7.34144C51.136 7.34144 53.1344 9.4285 53.1344 12.3165C53.1344 15.3257 51.136 17.0557 47.9573 17.0557H41.6283V21.9734H38.9333V7.34144H47.9573ZM48.1067 14.6325C49.5003 14.6325 50.3749 13.6605 50.3749 12.3524C50.3749 10.9087 49.5003 9.75767 47.9499 9.75767H41.6213V14.6325H48.1067ZM63.1323 22.3808C58.496 22.3808 54.656 19.2784 54.656 14.6394C54.656 10.0573 58.496 6.89808 63.1323 6.89808C67.7899 6.89808 71.5733 10.0573 71.5733 14.6394C71.5733 19.2784 67.7904 22.3808 63.1323 22.3808ZM63.1323 9.39258C59.7547 9.39258 57.4432 11.6941 57.4432 14.6394C57.4432 17.6631 59.6549 19.9077 63.1323 19.9077C66.5883 19.9077 68.7787 17.6491 68.7787 14.6394C68.7787 11.6871 66.5883 9.39258 63.1323 9.39258ZM82.752 22.3594C77.8811 22.3594 74.2117 19.2569 74.2117 14.618C74.2117 10.0504 77.9381 6.89111 82.752 6.89111C85.6251 6.89111 87.68 7.71296 89.5291 9.07145L88.0853 11.2228C86.7483 10.1866 85.0629 9.4285 82.8304 9.4285C79.2747 9.4285 77.0635 11.6871 77.0635 14.618C77.0635 17.6416 79.2965 19.822 82.8661 19.822C85.0992 19.822 86.8624 19.0998 88.1995 18.0705L89.6357 20.2149C87.7941 21.5804 85.6251 22.3594 82.752 22.3594ZM112.946 18.4206L111.275 21.9734H108.359L115.442 7.34144H118.272L125.376 21.9734H122.46L120.796 18.4206H112.946ZM114.069 16.0403H119.68L116.885 10.1072L114.069 16.0403Z" fill="#918F90"/>
<path d="M139.669 21.9734V15.7117H130.14V21.9734H127.445V7.34151H130.14V13.3169H139.669V7.34151H142.372V21.9734H139.669ZM146.361 21.9734V7.34151H149.063V14.1677L156.38 7.34151H159.694L152.171 14.3891L160 21.9734H156.373L149.056 14.8754V21.9734H146.361H146.361ZM101.703 12.7026H95.3814V9.6146H105.792V7.32007H92.679V21.945H101.696C104.875 21.945 107.065 20.208 107.065 17.32C107.072 14.3248 104.882 12.7026 101.703 12.7026H101.703ZM101.86 19.5288H95.3814V15.1258H101.86C103.552 15.1258 104.512 16.0194 104.512 17.3275C104.512 18.7643 103.744 19.5293 101.86 19.5293V19.5288ZM4.14562 45.2189C3.54136 44.9546 2.88696 44.7831 2.30402 44.7831C1.45762 44.7831 1.03096 44.9691 1.03096 45.2977C1.03096 46.2413 4.82136 45.4838 4.82136 47.4995C4.82136 48.3358 4.03896 48.9722 2.48162 48.9722C1.55736 48.9722 0.832025 48.7792 0.00695801 48.3289L0.348291 47.5783C1.07362 47.9858 1.74936 48.1643 2.48856 48.1643C3.41282 48.1643 3.90349 47.9 3.90349 47.4995C3.90349 46.4632 0.113091 47.2352 0.113091 45.3481C0.113091 44.5333 0.888025 43.9757 2.28216 43.9757C3.05033 43.97 3.80876 44.1486 4.49443 44.4968L4.14616 45.2189H4.14562ZM8.32749 48.9931C6.81283 48.9931 5.55416 47.9852 5.55416 46.4697C5.55416 44.9686 6.81283 43.9393 8.32749 43.9393C9.84909 43.9393 11.0795 44.9686 11.0795 46.4697C11.0864 47.9852 9.84909 48.9931 8.32749 48.9931ZM8.32749 44.7541C7.22509 44.7541 6.47149 45.5047 6.47149 46.4697C6.47149 47.4561 7.19683 48.1922 8.32749 48.1922C9.45123 48.1922 10.1766 47.4561 10.1766 46.4697C10.1766 45.5047 9.45123 44.7541 8.32749 44.7541ZM14.6923 48.9931C13.0992 48.9931 11.9046 47.9783 11.9046 46.4627C11.9046 44.9686 13.1206 43.9393 14.6923 43.9393C15.631 43.9393 16.2992 44.2111 16.904 44.6539L16.4347 45.3546C15.9444 44.9675 15.337 44.7607 14.7136 44.7686C13.5547 44.7686 12.8294 45.5047 12.8294 46.4627C12.8294 47.4491 13.5547 48.1638 14.7211 48.1638C15.4464 48.1638 16.0294 47.9279 16.4635 47.5848L16.9328 48.2924C16.3355 48.7358 15.6315 48.9931 14.6928 48.9931H14.6923ZM17.8779 48.8645H18.7595V44.0824H17.8774V48.8645H17.8779ZM20.0112 48.8645V44.0894H24.3419V44.8758H20.8928V46.0338H23.5734V46.8273H20.8923V48.078H24.4907V48.8645H20.0107" fill="#918F90"/>
<path d="M27.705 44.8683V48.8639H26.8234V44.8683H24.889V44.0893H29.6394V44.8683H27.705ZM30.3573 48.8644V44.0893H34.688V44.8758H31.2389V46.0338H33.92V46.8272H31.2389V48.0779H34.8373V48.8644H30.3573ZM40.3482 48.1567C40.832 48.1567 41.3296 48.0495 41.7066 47.871V46.4841H42.56V48.3353C41.9557 48.7427 41.1306 48.9931 40.3056 48.9931C38.72 48.9931 37.5178 47.9782 37.5178 46.4627C37.5178 44.9685 38.7338 43.9392 40.3056 43.9392C41.2298 43.9392 41.92 44.2035 42.5173 44.6469L42.048 45.3476C41.6144 45.0114 41.0597 44.783 40.3269 44.783C39.168 44.7546 38.4426 45.5052 38.4426 46.4627C38.457 47.4561 39.1824 48.1567 40.3482 48.1567ZM43.7546 48.8644V44.0893H48.0853V44.8758H44.6362V46.0338H47.3173V46.8272H44.6362V48.0779H48.2346V48.8644H43.7546ZM50.0405 48.8644H49.1802V44.0893H50.0832L53.1834 47.6919L53.2048 47.685L53.1477 45.3406V44.0893H54.008V48.8644H53.12L50.0197 45.2687L50.0053 45.2757L50.041 47.6201V48.8639L50.0405 48.8644ZM55.2602 48.8644V44.0893H59.5909V44.8758H56.1418V46.0338H58.8229V46.8272H56.1418V48.0779H59.7402V48.8644H55.2602ZM62.976 47.106H61.5536V48.8644H60.672V44.0893H63.7296C64.7466 44.0893 65.3722 44.7112 65.3722 45.6119C65.3722 46.4627 64.7536 46.9773 64.0069 47.0845L65.4218 48.8714H64.3125C64.3194 48.8644 62.9754 47.106 62.9754 47.106H62.976ZM63.6373 46.3125C64.185 46.3125 64.4976 46.0268 64.4976 45.6119C64.4976 45.1615 64.2202 44.8828 63.7296 44.8828H61.5536V46.3125H63.6373ZM67.2138 47.7064L66.6666 48.8714H65.7136L68.0245 44.0893H68.9488L71.2672 48.8714H70.3285L69.7808 47.7064H67.2138ZM67.5834 46.9275H69.4181L68.5077 44.9905L67.5834 46.9275ZM71.9141 48.8644V44.0893H72.7957V48.0779H75.9674V48.8644H71.9141ZM76.657 48.8644V44.0893H80.9808V44.8758H77.5317V46.0338H80.2128V46.8272H77.5317V48.0779H81.1301V48.8644H76.657ZM86.8544 48.1637C87.3381 48.1637 87.8357 48.0565 88.2197 47.878V46.4911H89.073V48.3497C88.4757 48.7572 87.6368 49.0075 86.8186 49.0075C85.2256 49.0075 84.024 47.9927 84.024 46.4702C84.024 44.976 85.24 43.9467 86.8186 43.9467C87.736 43.9467 88.433 44.211 89.0373 44.6544L88.561 45.3551C88.1274 45.0189 87.5728 44.7905 86.84 44.7905C85.681 44.7621 84.9557 45.5196 84.9557 46.4777C84.9557 47.4641 85.681 48.1648 86.8544 48.1648V48.1637ZM92.5648 47.1129H91.1424V48.8783H90.2608V44.0893H93.3258C94.3429 44.0893 94.9685 44.7182 94.9685 45.6188C94.9685 46.4696 94.3498 46.9843 93.5962 47.0915L95.0186 48.8783H93.9093L92.5653 47.1129H92.5648ZM93.233 46.3195C93.7808 46.3195 94.0933 46.0338 94.0933 45.6188C94.0933 45.1685 93.816 44.8828 93.3253 44.8828H91.1424V46.3195H93.233ZM98.4954 49.0145C96.9808 49.0145 95.7221 47.9997 95.7221 46.4771C95.7221 44.976 96.9808 43.9467 98.4954 43.9467C100.017 43.9467 101.262 44.976 101.262 46.4771C101.262 47.9997 100.024 49.0145 98.4954 49.0145ZM98.4954 44.7616C97.393 44.7616 96.6325 45.5121 96.6325 46.4771C96.6325 47.4636 97.3578 48.1996 98.4954 48.1996C99.6261 48.1996 100.344 47.4636 100.344 46.4771C100.344 45.5121 99.6261 44.7616 98.4954 44.7616ZM107.078 46.9275C107.078 48.1498 106.175 49.0145 104.675 49.0145C103.174 49.0145 102.278 48.1283 102.278 46.9275V44.0893H103.16V46.8342C103.16 47.6276 103.636 48.1921 104.675 48.1921C105.706 48.1921 106.196 47.6276 106.196 46.8342V44.0893H107.078V46.9269L107.078 46.9275ZM111.267 44.0893C112.305 44.0893 112.966 44.7686 112.966 45.7191C112.966 46.6985 112.305 47.27 111.267 47.27H109.197V48.8783H108.316V44.0893C108.309 44.0893 111.267 44.0893 111.267 44.0893ZM111.316 46.4766C111.415 46.4812 111.515 46.4649 111.607 46.4288C111.7 46.3927 111.784 46.3376 111.854 46.2669C111.925 46.1963 111.979 46.1117 112.015 46.0186C112.051 45.9255 112.067 45.8258 112.063 45.726C112.063 45.2543 111.771 44.8752 111.267 44.8752H109.197V46.4766H111.316Z" fill="#918F90"/>
</g>
<defs>
<clipPath id="clip0_29_138">
<rect width="160" height="49" fill="white"/>
</clipPath>
</defs>
</svg>
