<svg width="86" height="58" viewBox="0 0 86 58" fill="none" xmlns="http://www.w3.org/2000/svg">
<g clip-path="url(#clip0_48_6)">
<path d="M77.0417 0.333252H8.95828C4.01697 0.333252 0 4.35375 0 9.2917V48.7084C0 53.6462 4.01697 57.6667 8.95828 57.6667H77.0415C81.983 57.6667 85.9998 53.6462 85.9998 48.7084V9.2917C86 4.35375 81.983 0.333252 77.0417 0.333252ZM82.4167 48.7082C82.4167 51.6717 80.0052 54.0832 77.0417 54.0832H8.95828C5.9948 54.0832 3.58328 51.6717 3.58328 48.7082V9.2917C3.58328 6.32823 5.9948 3.9167 8.95828 3.9167H77.0415C80.005 3.9167 82.4165 6.32823 82.4165 9.2917V48.7082H82.4167Z" fill="#2867F3"/>
<path d="M39.4727 29H25.1394C24.1504 29 23.3477 29.8027 23.3477 30.7917C23.3477 31.7807 24.1504 32.5833 25.1394 32.5833H39.4727C40.4617 32.5833 41.2644 31.7806 41.2644 30.7916C41.2644 29.8026 40.4617 29 39.4727 29Z" fill="#2867F3"/>
<path d="M57.3894 36.1665H25.1394C24.1504 36.1665 23.3477 36.9692 23.3477 37.9582C23.3477 38.9472 24.1504 39.7499 25.1394 39.7499H57.3894C58.3784 39.7499 59.1811 38.9472 59.1811 37.9582C59.1809 36.9692 58.3784 36.1665 57.3894 36.1665Z" fill="#2867F3"/>
<path d="M32.3059 18.25H25.1394C24.1504 18.25 23.3477 19.0527 23.3477 20.0417C23.3477 21.0307 24.1504 21.8333 25.1394 21.8333H32.3061C33.2951 21.8333 34.0978 21.0306 34.0978 20.0416C34.0978 19.0526 33.2949 18.25 32.3059 18.25Z" fill="#2867F3"/>
<path d="M46.6394 18.25H39.4726C38.4836 18.25 37.6809 19.0527 37.6809 20.0417C37.6809 21.0307 38.4836 21.8333 39.4726 21.8333H46.6394C47.6284 21.8333 48.4311 21.0306 48.4311 20.0416C48.4311 19.0526 47.6284 18.25 46.6394 18.25Z" fill="#2867F3"/>
<path d="M60.9726 18.25H53.8059C52.8169 18.25 52.0142 19.0527 52.0142 20.0417C52.0142 21.0307 52.8169 21.8333 53.8059 21.8333H60.9726C61.9616 21.8333 62.7643 21.0306 62.7643 20.0416C62.7643 19.0526 61.9616 18.25 60.9726 18.25Z" fill="#2867F3"/>
</g>
<defs>
<clipPath id="clip0_48_6">
<rect width="86" height="58" fill="white"/>
</clipPath>
</defs>
</svg>
