<svg width="158" height="51" viewBox="0 0 158 51" fill="none" xmlns="http://www.w3.org/2000/svg">
<g clip-path="url(#clip0_29_163)">
<path d="M33.6013 5.94135C31.0733 5.8362 28.8613 7.51867 28.2293 9.83207C27.8079 11.2742 27.8079 12.8064 28.2293 14.2486C28.7559 16.2465 30.4413 17.8238 32.5479 18.0341C34.6546 18.4548 36.7613 17.5084 37.9199 15.7207C39.2893 13.6176 39.3946 10.9888 38.2359 8.78053C37.3933 6.9929 35.6026 5.8362 33.6013 5.94135ZM33.4959 23.9228C30.3359 24.0279 27.2813 22.8712 24.9639 20.8733C22.4359 18.5599 21.0666 15.3001 21.2773 11.83C21.1719 8.99084 22.2253 6.25681 24.0159 4.04857C25.7013 2.05063 28.0186 0.788774 30.5466 0.263001C33.7066 -0.473081 36.9719 0.0526919 39.8159 1.63001C43.2919 3.52279 45.3986 7.09805 45.3986 11.0939C45.8199 14.564 44.5559 18.1393 42.0279 20.5578C39.8159 22.8712 36.7613 24.0279 33.4959 23.9228ZM113.76 14.1434C112.707 13.4073 111.548 12.9867 110.284 12.8816C109.02 12.6712 107.651 12.8816 106.597 13.6176C105.544 14.3537 105.228 15.7207 105.544 16.8774C105.965 17.929 106.913 18.6651 107.967 18.7702C109.125 18.8754 110.179 18.6651 111.232 18.2444C113.128 17.7187 114.076 15.931 113.76 14.1434ZM113.865 9.93723V7.93929C113.655 6.88774 112.917 6.04651 111.864 5.8362C108.493 4.88981 104.807 5.10011 101.647 6.57228L100.804 1.84032C102.173 1.20939 103.543 0.788774 105.017 0.47331C108.072 -0.157617 111.127 -0.0524628 114.076 0.578465C117.236 1.4197 119.448 3.20733 120.08 6.57228C120.185 7.41352 120.291 8.25475 120.185 9.20114V17.7187C120.291 19.5063 120.501 19.6115 122.292 19.9269V23.5022C120.501 24.1331 118.605 24.0279 116.92 23.2919C115.972 22.8712 115.34 21.9249 115.235 20.8733C115.235 20.663 115.235 20.4527 115.129 20.1372C112.917 23.1867 109.863 24.0279 106.492 23.8176C102.7 23.5022 99.7506 20.9785 99.2239 17.929C98.3812 12.9867 100.804 9.3063 105.755 8.57022C109.02 8.25475 109.863 8.46506 113.865 9.93723ZM84.6879 14.2486L81.2119 14.4589V23.397H74.6813V0.788774H81.1066V9.20114C82.5189 9.30572 83.939 9.1994 85.3199 8.88568C87.0053 8.35991 88.2692 7.09805 88.6906 5.41558C89.1119 3.94341 89.3226 2.36609 89.6386 0.788774H95.6426C95.7479 5.41558 94.7999 9.62176 90.3759 12.1455C90.5866 12.4609 90.6919 12.7764 90.7972 12.9867L96.2746 22.1352C96.4853 22.5558 96.6959 22.9764 96.8013 23.397H89.9546L84.6879 14.2486ZM63.0946 0.788774H69.5199V23.5022H63.0946V16.2465C61.9359 16.562 60.7773 16.8774 59.7239 16.9826C56.8799 17.5084 53.9306 16.8774 51.6133 15.0898C49.8226 13.6176 48.7693 11.5145 48.3479 9.3063C47.8213 6.57228 48.1373 3.7331 48.0319 0.788774H54.6679V1.84032C54.6679 3.62795 54.6679 5.52073 54.7733 7.30836C54.8786 9.62176 56.7746 11.4094 59.0919 11.4094C60.5666 11.4094 61.9359 10.9888 63.0946 10.1475V0.788774ZM13.1666 23.397H6.74126V6.57228H-7.5506e-05V0.788774H19.8026V6.46712H13.1666V23.397ZM3.05459 47.5826C2.10659 47.5826 1.57992 46.9517 1.57992 45.6898C1.73849 45.4403 1.95573 45.2332 2.21274 45.0866C2.46975 44.94 2.75874 44.8583 3.05459 44.8486C3.79192 44.8486 4.31859 45.2692 4.42392 46.0053V46.1104C4.42392 46.9517 3.89726 47.5826 3.05459 47.5826ZM3.58126 43.4816C2.73859 43.4816 2.00126 43.797 1.47459 44.4279C1.47459 44.0073 1.68526 43.4816 2.00126 43.1661C2.21192 42.9558 2.42259 42.7455 2.73859 42.7455L3.68659 42.43L4.21326 42.3249L5.47726 42.1145V40.7475C4.63459 40.8527 3.89726 41.063 3.05459 41.2733C2.42259 41.4836 1.89592 41.6939 1.36926 42.1145C0.421258 42.8506 -0.105409 44.1125 -7.5506e-05 45.2692C-7.5506e-05 46.2156 0.210591 47.162 0.842591 47.898C1.36926 48.6341 2.21192 48.9496 3.15992 48.9496C3.89726 48.9496 4.63459 48.6341 5.26659 48.1084C5.79326 47.5826 6.10926 46.8465 6.10926 46.0053C6.21459 45.2692 5.89859 44.6383 5.47726 44.1125C4.84526 43.6919 4.21326 43.4816 3.58126 43.4816ZM10.3226 47.162C10.0066 47.5826 9.58526 47.7929 9.05859 47.6877C8.42659 47.6877 8.00526 47.4774 8.00526 46.9517C8.00526 46.4259 8.42659 46.2156 9.16392 46.2156C9.58526 46.2156 10.0066 46.3207 10.3226 46.531V47.162ZM12.3239 47.5826C12.1133 47.5826 11.9026 47.4774 11.9026 47.162V45.2692C11.9026 44.6383 11.6919 44.0073 11.1653 43.6919C10.6386 43.2712 9.90126 43.0609 9.26926 43.0609C8.53192 43.0609 7.89992 43.1661 7.16259 43.4816V44.8486C7.68926 44.5331 8.21592 44.4279 8.84792 44.4279C9.90126 44.4279 10.3226 44.7434 10.3226 45.4795V45.6898C9.78722 45.4745 9.2144 45.3672 8.63726 45.3743C8.11059 45.3743 7.47859 45.4795 7.05726 45.795C6.63592 46.1104 6.31992 46.6362 6.42526 47.162C6.42526 48.2135 7.26792 49.0548 8.32126 49.0548H8.53192C9.26926 49.0548 10.0066 48.8444 10.4279 48.3187C10.6386 48.8444 11.1653 49.0548 11.6919 49.0548C12.0079 49.0548 12.3239 48.9496 12.5346 48.8444V47.6877C12.4293 47.5826 12.3239 47.5826 12.3239 47.5826ZM14.9573 48.7393V46.531H17.2746V48.7393H18.8546V43.1661H17.2746V45.2692H14.9573V43.1661H13.3773V48.7393H14.9573ZM21.6986 48.7393V46.3207L23.9106 48.7393H25.9119L23.1733 45.6898L25.5959 43.1661H23.5946L21.6986 45.2692V43.1661H20.1186V48.7393H21.6986ZM31.2839 47.4774C31.5999 46.531 31.8106 45.4795 31.8106 44.5331H33.6013V47.4774H31.2839ZM30.4413 50.2115V48.7393H34.4439V50.2115H36.0239V47.4774H35.0759V43.1661H30.3359V44.2176C30.4413 45.3743 30.1253 46.4259 29.7039 47.3723H28.9666V50.1063L30.4413 50.2115ZM40.7639 44.5331V48.8444H42.3439V43.1661H37.4986V44.8486C37.4986 45.4795 37.4986 46.1104 37.2879 46.7413C37.1826 47.2671 36.9719 47.4774 36.5506 47.4774H36.2346V48.7393C36.4453 48.8444 36.6559 48.8444 36.8666 48.8444C37.8146 48.8444 38.6573 48.2135 38.7626 47.2671C38.9733 46.6362 38.9733 46.0053 38.9733 45.2692V44.4279L40.7639 44.5331ZM45.9253 45.795C45.3986 45.795 45.0826 45.5846 45.0826 45.0589C45.0826 44.5331 45.3986 44.3228 45.9253 44.3228H47.0839V45.6898L45.9253 45.795ZM44.8719 48.7393L46.1359 46.8465H47.0839V48.7393H48.6639V43.1661H45.6093C44.1346 43.1661 43.3973 43.9022 43.3973 44.9537C43.2919 45.6898 43.8186 46.4259 44.5559 46.6362L43.0813 48.7393H44.8719ZM54.4573 48.7393V44.4279H56.6693V48.7393H58.2493V43.1661H52.8773V48.7393H54.4573ZM62.4626 44.4279C62.8839 44.4279 63.3053 44.5331 63.5159 44.8486C64.0426 45.4795 64.0426 46.4259 63.5159 47.0568C63.1999 47.3723 62.8839 47.4774 62.4626 47.4774C61.8306 47.4774 61.3039 47.162 61.0933 46.6362V45.2692C61.4093 44.7434 61.9359 44.4279 62.4626 44.4279ZM62.9893 42.9558C62.2519 42.9558 61.6199 43.2712 61.0933 43.797V43.1661H59.5133V51.0527H61.0933V48.1084C61.5146 48.6341 62.2519 48.9496 62.9893 48.9496C63.7266 48.9496 64.3586 48.6341 64.8853 48.1084C65.4119 47.5826 65.6226 46.8465 65.6226 46.0053C65.6226 45.2692 65.4119 44.5331 64.8853 43.9022C64.3586 43.3764 63.7266 43.0609 62.9893 42.9558ZM67.6239 45.3743C67.6239 44.7434 68.2559 44.2176 68.8879 44.2176C69.5199 44.2176 70.0466 44.6383 70.0466 45.2692H67.6239V45.3743ZM69.2039 48.9496C69.9413 48.9496 70.6786 48.8444 71.3106 48.4238V47.162C70.7839 47.4774 70.1519 47.6877 69.5199 47.6877C68.4666 47.6877 67.8346 47.2671 67.6239 46.531H71.6266V46.1104C71.6266 45.3743 71.4159 44.6383 70.8893 44.0073C70.3626 43.4816 69.7306 43.1661 68.8879 43.1661C68.0453 43.1661 67.3079 43.4816 66.7813 44.0073C66.2546 44.5331 65.9386 45.2692 65.9386 46.1104C65.9386 46.9517 66.2546 47.6877 66.8866 48.2135C67.6239 48.6341 68.3613 48.9496 69.2039 48.9496ZM74.3653 47.4774C74.6813 46.531 74.8919 45.4795 74.8919 44.5331H76.6826V47.4774H74.3653ZM73.6279 50.2115V48.7393H77.7359V50.2115H79.3159V47.4774H78.3679V43.1661H73.6279V44.2176C73.7333 45.3743 73.4173 46.4259 72.9959 47.3723H72.2586V50.1063L73.6279 50.2115ZM81.5279 48.7393V44.4279H83.7399V48.7393H85.3199V43.1661H79.9479V48.7393H81.5279ZM89.5333 44.4279C89.9546 44.4279 90.3759 44.5331 90.5866 44.8486C91.1133 45.4795 91.1133 46.4259 90.5866 47.0568C90.2706 47.3723 89.9546 47.4774 89.5333 47.4774C88.9013 47.4774 88.3746 47.162 88.1639 46.6362V45.2692C88.4799 44.7434 89.0066 44.4279 89.5333 44.4279ZM90.0599 42.9558C89.3226 42.9558 88.6906 43.2712 88.1639 43.797V43.1661H86.5839V51.0527H88.1639V48.1084C88.5853 48.6341 89.3226 48.9496 90.0599 48.9496C90.7973 48.9496 91.4293 48.6341 91.9559 48.1084C92.4826 47.5826 92.6933 46.8465 92.6933 46.0053C92.6933 45.2692 92.4826 44.5331 91.9559 43.9022C91.4293 43.3764 90.7973 43.0609 90.0599 42.9558ZM95.0106 48.7393L97.5386 45.3743V48.7393H99.1186V43.1661H97.6439L95.1159 46.4259V43.1661H93.5359V48.7393H95.0106ZM101.963 48.7393V46.531H104.28V48.7393H105.86V43.1661H104.28V45.2692H101.963V43.1661H100.383V48.7393H101.963ZM108.599 48.7393L111.127 45.3743V48.7393H112.707V43.1661H111.232L108.704 46.4259V43.1661H107.124V48.7393H108.599ZM115.445 48.7393V45.2692L116.815 47.0568H117.447L118.816 45.2692V48.7393H120.291V43.1661H118.711L117.025 45.2692L115.34 43.1661H113.76V48.7393H115.445ZM125.031 47.162C124.715 47.5826 124.293 47.7929 123.767 47.6877C123.135 47.6877 122.713 47.4774 122.713 46.9517C122.713 46.4259 123.135 46.2156 123.767 46.2156C124.188 46.2156 124.609 46.3207 124.925 46.531L125.031 47.162ZM127.032 47.5826C126.821 47.5826 126.611 47.4774 126.611 47.162V45.2692C126.611 44.6383 126.4 44.0073 125.873 43.6919C125.347 43.2712 124.609 43.0609 123.977 43.0609C123.24 43.0609 122.608 43.1661 121.871 43.4816V44.8486C122.397 44.5331 122.924 44.4279 123.556 44.4279C124.609 44.4279 125.031 44.7434 125.031 45.4795V45.6898C124.495 45.4745 123.922 45.3672 123.345 45.3743C122.819 45.3743 122.187 45.4795 121.765 45.795C121.344 46.1104 121.028 46.6362 121.133 47.162C121.133 48.2135 121.976 49.0548 123.029 49.0548H123.24C123.977 49.0548 124.715 48.8444 125.136 48.3187C125.347 48.8444 125.873 49.0548 126.4 49.0548C126.716 49.0548 127.032 48.9496 127.243 48.8444V47.6877C127.243 47.5826 127.137 47.5826 127.032 47.5826ZM130.824 48.7393V44.4279H132.615V43.1661H127.453V44.5331H129.244V48.8444H130.824V48.7393ZM134.511 45.3743C134.511 44.7434 135.143 44.2176 135.775 44.2176C136.407 44.2176 136.933 44.6383 136.933 45.2692H134.511V45.3743ZM135.985 48.9496C136.723 48.9496 137.46 48.8444 138.092 48.4238V47.162C137.565 47.4774 136.933 47.6877 136.301 47.6877C135.248 47.6877 134.616 47.2671 134.405 46.531H138.408V46.1104C138.408 45.3743 138.197 44.6383 137.671 44.0073C137.144 43.4816 136.512 43.1661 135.669 43.1661C134.827 43.1661 134.089 43.4816 133.563 44.0073C133.036 44.5331 132.72 45.2692 132.72 46.1104C132.72 46.9517 133.036 47.6877 133.668 48.2135C134.405 48.6341 135.143 48.9496 135.985 48.9496ZM143.359 44.5331V48.8444H144.939V43.1661H140.093V44.8486C140.093 45.4795 140.093 46.1104 139.883 46.7413C139.777 47.2671 139.567 47.4774 139.145 47.4774H138.829V48.7393C139.04 48.8444 139.251 48.8444 139.461 48.8444C140.409 48.8444 141.252 48.2135 141.357 47.2671C141.568 46.6362 141.568 46.0053 141.568 45.2692V44.4279L143.359 44.5331ZM147.467 45.3743C147.467 44.7434 148.099 44.2176 148.731 44.2176C149.363 44.2176 149.889 44.6383 149.889 45.2692H147.467V45.3743ZM148.941 48.9496C149.679 48.9496 150.416 48.8444 151.048 48.4238V47.162C150.521 47.4774 149.889 47.6877 149.257 47.6877C148.204 47.6877 147.572 47.2671 147.361 46.531H151.364V46.1104C151.364 45.3743 151.153 44.6383 150.627 44.0073C150.1 43.4816 149.468 43.1661 148.625 43.1661C147.783 43.1661 147.045 43.4816 146.519 44.0073C145.992 44.5331 145.676 45.2692 145.676 46.1104C145.676 46.9517 145.992 47.6877 146.624 48.2135C147.361 48.6341 148.204 48.9496 148.941 48.9496ZM155.156 42.5352C155.683 42.5352 156.209 42.3249 156.631 42.0094C157.052 41.6939 157.263 41.1682 157.263 40.6424H156.104C156.104 41.063 155.683 41.4836 155.261 41.4836C154.84 41.4836 154.419 41.063 154.419 40.6424H153.26C153.26 41.6939 154.103 42.5352 155.156 42.5352C155.156 42.5352 155.051 42.5352 155.156 42.5352ZM153.892 48.7393L156.42 45.4795V48.7393H158V43.1661H156.525L153.997 46.4259V43.1661H152.417V48.7393H153.892Z" fill="#918F90"/>
</g>
<defs>
<clipPath id="clip0_29_163">
<rect width="158" height="51" fill="white"/>
</clipPath>
</defs>
</svg>
