<svg width="27" height="22" viewBox="0 0 27 22" fill="none" xmlns="http://www.w3.org/2000/svg">
<path d="M26.6013 13.5754L23.0257 2.22305C22.522 0.568083 20.7619 -0.367335 19.1069 0.136352C18.7139 0.258122 18.487 0.673249 18.6087 1.06624C18.7305 1.45922 19.1456 1.68616 19.5386 1.56439C20.4076 1.29871 21.3264 1.79132 21.5921 2.66032V2.66586L24.1493 10.7968C23.3356 10.3374 22.4002 10.0773 21.4039 10.0773C18.5368 10.0773 16.1678 12.247 15.8468 15.0256H11.142C10.7767 12.2913 8.42984 10.1769 5.59591 10.1769C4.59407 10.1769 3.65311 10.4426 2.83947 10.902L5.42986 2.66586V2.66032C5.69554 1.79132 6.61435 1.29871 7.48335 1.56439C7.87634 1.68616 8.297 1.45922 8.41323 1.06624C8.535 0.673249 8.30807 0.252587 7.91508 0.136352C6.26011 -0.367335 4.50551 0.568083 3.99629 2.22305L0.431732 13.5865C0.420662 13.6197 0.415127 13.6473 0.409592 13.6806C0.149446 14.3281 0 15.0366 0 15.7728C0 18.8558 2.5129 21.3687 5.59591 21.3687C8.42984 21.3687 10.7767 19.2543 11.142 16.52H15.8744C16.284 19.2045 18.6087 21.2691 21.4039 21.2691C24.4869 21.2691 26.9998 18.7562 26.9998 15.6732C27.0054 14.9315 26.8615 14.223 26.6013 13.5754ZM5.60144 19.8742C3.33762 19.8742 1.49999 18.0366 1.49999 15.7728C1.49999 13.509 3.33762 11.6713 5.60144 11.6713C7.86527 11.6713 9.70289 13.509 9.70289 15.7728C9.70289 18.0366 7.85973 19.8742 5.60144 19.8742ZM21.4095 19.7746C19.1456 19.7746 17.308 17.937 17.308 15.6732C17.308 13.4093 19.1512 11.5717 21.4095 11.5717C23.6678 11.5717 25.5109 13.4093 25.5109 15.6732C25.5109 17.937 23.6733 19.7746 21.4095 19.7746Z" fill="#2867F3"/>
</svg>
