<svg width="42" height="42" viewBox="0 0 42 42" fill="none" xmlns="http://www.w3.org/2000/svg">
<path d="M41.7204 11.7342L30.2658 0.279675C29.8929 -0.0932248 29.2889 -0.0932248 28.9161 0.279675L21.0001 8.19567L20.7204 7.91601C20.3475 7.54311 19.7435 7.54311 19.3706 7.91601L2.97926 24.3074C1.05892 26.2286 0 28.7827 0 31.5C0 37.2898 4.71123 42 10.5 42C13.1772 42 15.8003 40.9141 17.6926 39.0208L34.084 22.6294C34.4569 22.2565 34.4569 21.6524 34.084 21.2796L33.8044 21L41.7204 13.084C42.0933 12.7112 42.0933 12.1071 41.7204 11.7342ZM16.3429 37.671C14.8048 39.2091 12.6757 40.091 10.5 40.091C5.76263 40.091 1.90906 36.2373 1.90906 31.5C1.90906 29.2926 2.76851 27.2177 4.32902 25.6571L20.0455 9.94069L32.0593 21.9546L16.3429 37.671ZM32.4546 19.6502L22.3498 9.54551L29.591 2.30436L39.6958 12.4092L32.4546 19.6502Z" fill="#2867F3"/>
<path d="M26.0394 8.88475C25.6795 9.25953 25.6852 9.85328 26.0524 10.2205L27.007 11.1751C27.1934 11.3615 27.4377 11.4548 27.6819 11.4548C27.9262 11.4548 28.1704 11.3615 28.3569 11.1751L31.2205 8.31148C31.5934 7.93858 31.5934 7.33454 31.2205 6.96173L30.2659 6.00715C30.1746 5.91578 30.0646 5.84124 29.9453 5.79372C29.274 5.52239 29.274 5.51496 26.0394 8.88475Z" fill="#2867F3"/>
<path d="M30.827 14.9952L31.7816 15.9497C31.968 16.1362 32.2123 16.2294 32.4565 16.2294C32.7008 16.2294 32.945 16.1362 33.1315 15.9497L35.9951 13.0861C36.368 12.7132 36.368 12.1092 35.9951 11.7363L35.0405 10.7818C34.9492 10.6904 34.8392 10.6159 34.7199 10.5683C34.0506 10.2971 34.0487 10.2896 30.8141 13.6595C30.4542 14.0342 30.4598 14.6279 30.827 14.9952Z" fill="#2867F3"/>
<path d="M19.2996 20.2285C19.2232 20.551 19.3201 20.8893 19.5531 21.1233L19.5536 21.1238L13.8969 26.7798L13.4082 25.3134C13.2926 24.9694 13.3802 24.5956 13.6394 24.3374L14.3617 23.6145C14.5165 23.6539 14.67 23.7054 14.8289 23.7054C15.3173 23.7054 15.8058 23.519 16.1786 23.147C16.9225 22.4032 16.9225 21.1914 16.1786 20.4474C15.4329 19.7035 14.2248 19.7035 13.479 20.4474C12.9861 20.9403 12.8515 21.6331 13.0118 22.2645L12.2896 22.9867C11.5159 23.7594 11.2512 24.8828 11.5961 25.9183L12.3865 28.2899L11.9216 28.7548C11.2906 28.5944 10.5987 28.729 10.1046 29.2219C9.36065 29.9658 9.36065 31.1776 10.1046 31.9215C10.4775 32.2934 10.9659 32.4799 11.4543 32.4799C11.9428 32.4799 12.4313 32.2935 12.8041 31.9215C13.2968 31.4287 13.4316 30.7359 13.2713 30.1044L15.0877 28.2884L17.4575 29.0783C17.7576 29.179 18.0653 29.2284 18.371 29.2284C19.1149 29.2284 19.8401 28.9357 20.3883 28.3876L20.9042 27.8716L20.9047 27.872C21.0911 28.0575 21.3354 28.1508 21.5796 28.1508C21.8238 28.1508 22.068 28.0576 22.2545 27.8711L23.6043 26.5214C23.9772 26.1485 23.9772 25.5444 23.6043 25.1716L22.2545 23.8219C21.8816 23.449 21.2776 23.45 20.9048 23.821L19.5531 25.1708C19.3742 25.3498 19.2735 25.5931 19.2735 25.8466C19.2735 26.1002 19.3742 26.3435 19.5531 26.5225L19.5536 26.5229L19.0386 27.0379C18.7794 27.2961 18.4047 27.3819 18.0616 27.2682L16.5966 26.7798L20.9043 22.4726L20.9048 22.473C21.0856 22.6539 21.3299 22.7518 21.5797 22.7518C21.6525 22.7518 21.727 22.7434 21.7997 22.7266C22.1203 22.6502 22.3813 22.4125 22.4858 22.0993L23.1607 20.0746C23.2744 19.7316 23.185 19.3531 22.9296 19.0977C22.676 18.8432 22.2976 18.7537 21.9526 18.8665L19.926 19.5414C19.6128 19.6468 19.3742 19.9058 19.2996 20.2285ZM14.8289 21.7963L15.5038 22.4721L14.8307 21.8001C14.8299 21.7992 14.8297 21.7981 14.8289 21.7973V21.7963V21.7963ZM11.4544 30.5727V30.5718C11.4544 30.5718 11.4564 30.5729 11.4572 30.5737L12.1293 31.2467L11.4544 30.5727Z" fill="#2867F3"/>
</svg>
