<svg width="100" height="100" viewBox="0 0 100 100" fill="none" xmlns="http://www.w3.org/2000/svg">
<mask id="path-1-inside-1_2044_264" fill="white">
<path d="M50 0C56.5661 7.82999e-08 63.0679 1.29329 69.1342 3.80602C75.2005 6.31876 80.7124 10.0017 85.3553 14.6447C89.9983 19.2876 93.6812 24.7996 96.194 30.8658C98.7067 36.9321 100 43.4339 100 50C100 56.5661 98.7067 63.0679 96.194 69.1342C93.6812 75.2005 89.9983 80.7124 85.3553 85.3553C80.7124 89.9983 75.2004 93.6813 69.1342 96.194C63.0679 98.7067 56.5661 100 50 100V97.5C56.2378 97.5 62.4145 96.2714 68.1775 93.8843C73.9404 91.4972 79.1768 87.9984 83.5876 83.5876C87.9983 79.1768 91.4972 73.9404 93.8843 68.1775C96.2714 62.4145 97.5 56.2378 97.5 50C97.5 43.7622 96.2714 37.5855 93.8843 31.8225C91.4972 26.0596 87.9984 20.8232 83.5876 16.4124C79.1768 12.0016 73.9404 8.50282 68.1775 6.11572C62.4145 3.72862 56.2378 2.5 50 2.5V0Z"/>
</mask>
<path d="M50 0C56.5661 7.82999e-08 63.0679 1.29329 69.1342 3.80602C75.2005 6.31876 80.7124 10.0017 85.3553 14.6447C89.9983 19.2876 93.6812 24.7996 96.194 30.8658C98.7067 36.9321 100 43.4339 100 50C100 56.5661 98.7067 63.0679 96.194 69.1342C93.6812 75.2005 89.9983 80.7124 85.3553 85.3553C80.7124 89.9983 75.2004 93.6813 69.1342 96.194C63.0679 98.7067 56.5661 100 50 100V97.5C56.2378 97.5 62.4145 96.2714 68.1775 93.8843C73.9404 91.4972 79.1768 87.9984 83.5876 83.5876C87.9983 79.1768 91.4972 73.9404 93.8843 68.1775C96.2714 62.4145 97.5 56.2378 97.5 50C97.5 43.7622 96.2714 37.5855 93.8843 31.8225C91.4972 26.0596 87.9984 20.8232 83.5876 16.4124C79.1768 12.0016 73.9404 8.50282 68.1775 6.11572C62.4145 3.72862 56.2378 2.5 50 2.5V0Z" fill="#2867F3" stroke="#2867F3" stroke-width="12" mask="url(#path-1-inside-1_2044_264)"/>
<mask id="path-2-inside-2_2044_264" fill="white">
<path d="M50 0C43.4339 7.82999e-08 36.9321 1.29329 30.8658 3.80602C24.7995 6.31876 19.2876 10.0017 14.6447 14.6447C10.0017 19.2876 6.31876 24.7996 3.80602 30.8658C1.29329 36.9321 0 43.4339 0 50C0 56.5661 1.29329 63.0679 3.80603 69.1342C6.31876 75.2005 10.0017 80.7124 14.6447 85.3553C19.2876 89.9983 24.7996 93.6813 30.8658 96.194C36.9321 98.7067 43.4339 100 50 100V97.5C43.7622 97.5 37.5855 96.2714 31.8225 93.8843C26.0596 91.4972 20.8232 87.9984 16.4124 83.5876C12.0017 79.1768 8.50282 73.9404 6.11572 68.1775C3.72862 62.4145 2.5 56.2378 2.5 50C2.5 43.7622 3.72862 37.5855 6.11572 31.8225C8.50282 26.0596 12.0016 20.8232 16.4124 16.4124C20.8232 12.0016 26.0596 8.50282 31.8225 6.11572C37.5855 3.72862 43.7622 2.5 50 2.5V0Z"/>
</mask>
<path d="M50 0C43.4339 7.82999e-08 36.9321 1.29329 30.8658 3.80602C24.7995 6.31876 19.2876 10.0017 14.6447 14.6447C10.0017 19.2876 6.31876 24.7996 3.80602 30.8658C1.29329 36.9321 0 43.4339 0 50C0 56.5661 1.29329 63.0679 3.80603 69.1342C6.31876 75.2005 10.0017 80.7124 14.6447 85.3553C19.2876 89.9983 24.7996 93.6813 30.8658 96.194C36.9321 98.7067 43.4339 100 50 100V97.5C43.7622 97.5 37.5855 96.2714 31.8225 93.8843C26.0596 91.4972 20.8232 87.9984 16.4124 83.5876C12.0017 79.1768 8.50282 73.9404 6.11572 68.1775C3.72862 62.4145 2.5 56.2378 2.5 50C2.5 43.7622 3.72862 37.5855 6.11572 31.8225C8.50282 26.0596 12.0016 20.8232 16.4124 16.4124C20.8232 12.0016 26.0596 8.50282 31.8225 6.11572C37.5855 3.72862 43.7622 2.5 50 2.5V0Z" fill="white" stroke="#E9F0FF" stroke-width="12" mask="url(#path-2-inside-2_2044_264)"/>
<path d="M65.8198 31.1366H34.1802C31.3285 31.1366 29 33.4564 29 36.3168V56.3837C29 59.2354 31.3198 61.5639 34.1802 61.5639H48.8227V66.5087H41.5233C40.8692 66.5087 40.3459 67.0319 40.3459 67.686C40.3459 68.3401 40.8692 68.8633 41.5233 68.8633H58.4767C59.1308 68.8633 59.6541 68.3401 59.6541 67.686C59.6541 67.0319 59.1308 66.5087 58.4767 66.5087H51.1773V61.5639H65.8198C68.6715 61.5639 71 59.2442 71 56.3837V36.3168C71 33.4564 68.6802 31.1366 65.8198 31.1366ZM34.1802 33.4912H65.8285C67.3808 33.4912 68.6541 34.7558 68.6541 36.3168V53.0872H31.3547V36.3168C31.3547 34.7558 32.6192 33.4912 34.1802 33.4912ZM65.8198 59.2093H34.1802C32.6279 59.2093 31.3547 57.9447 31.3547 56.3837V55.4418H68.6453V56.3837C68.6453 57.936 67.3808 59.2093 65.8198 59.2093Z" fill="#2867F3"/>
</svg>
