<svg width="160" height="35" viewBox="0 0 160 35" fill="none" xmlns="http://www.w3.org/2000/svg">
<g clip-path="url(#clip0_29_134)">
<path d="M93.4325 22.1263C90.4816 22.1263 89.9056 21.1875 89.9056 18.8715V16.09C89.9056 13.711 90.4176 12.8071 93.4325 12.8071C94.8621 12.8183 96.2895 12.9197 97.7061 13.1105L98.0117 8.81787C98.0117 8.81787 95.3307 8.45093 93.0267 8.45093C86.8827 8.45093 84.6427 10.463 84.6427 15.3556V19.6128C84.6427 25.0137 87.3589 26.5244 92.9909 26.5244C95.2667 26.5244 98.2885 26.1574 98.2885 26.1574L97.9472 21.8648C97.9403 21.8579 95.8352 22.1258 93.4315 22.1258L93.4325 22.1263ZM67.2075 13.1878H72.2992V26.2559H77.5899V13.1878H82.6816L82.9872 8.75433H66.9019L67.2075 13.1878Z" fill="#918F90"/>
<path d="M59.1285 8.75415L54.8693 18.7019H54.5562L50.1258 8.75415H45.2479L44.0815 26.2632H49.0666L49.5786 17.798H49.8842L53.0485 24.5121H56.4122L59.2282 17.798H59.5413L60.1242 26.2632H65.2442L64.0778 8.75415H59.1285ZM129.97 23.3896C129.016 24.0318 127.779 24.6461 126.67 24.6461C125.07 24.6461 124.814 23.9048 124.814 22.5985C124.814 21.0878 125.354 20.3746 126.776 20.3746C128.604 20.3746 129.976 20.5795 129.976 20.5795V23.3896H129.97ZM127.467 13.2305C126.101 13.2305 124.708 13.5128 123.499 13.8167L123.861 15.5323C124.864 15.3274 126.101 15.0732 127.339 15.0732C129.429 15.0732 129.97 15.7864 129.97 17.4311V18.7866C129.97 18.7866 128.704 18.5324 126.62 18.5324C123.968 18.5324 122.624 20.0929 122.624 22.6557C122.624 24.8796 123.605 26.574 126.03 26.574C127.573 26.574 129.074 26.009 130.205 25.1904L130.361 26.2637H132.217V17.537C132.21 14.8614 131.108 13.2305 127.467 13.2305ZM149.56 26.2563H151.779V13.4561H149.56V26.2557V26.2563ZM154.588 19.6973L159.431 13.4492H157.035L152.213 19.8244L157.291 26.2489H160L154.588 19.6973Z" fill="#918F90"/>
<path d="M117.675 21.8011C117.675 23.5448 116.8 24.3359 114.631 24.3359H110.713V17.4735H114.631C116.8 17.4735 117.675 18.1936 117.675 19.8812V21.8017V21.8011ZM114.731 15.553H110.713V10.6673H118.805V8.74735H108.444V26.2564H114.731C118.492 26.2564 119.936 24.5196 119.936 21.8297V19.8881C119.943 17.1913 118.5 15.553 114.731 15.553ZM143.659 18.6241H138.091V13.4562H135.872V26.2558H138.091V20.4668H143.659V26.2558H145.877V13.4562H143.659V18.6241ZM17.6283 30.4712C11.0363 30.4712 8.09227 25.2609 8.09227 20.093C8.09227 12.8213 13.1765 4.53253 17.6283 4.53253C22.0869 4.53253 27.1712 12.8208 27.1712 20.093C27.1712 25.2678 24.2203 30.4712 17.6283 30.4712ZM31.7296 0H3.5344C1.5856 0 0 1.56732 0 3.50212V31.509C0 33.4433 1.5856 35.0106 3.5344 35.0106H31.7301C33.6784 35.0106 35.2645 33.4433 35.2645 31.509V3.50212C35.264 1.56732 33.6784 0 31.7296 0Z" fill="#918F90"/>
</g>
<defs>
<clipPath id="clip0_29_134">
<rect width="160" height="35" fill="white"/>
</clipPath>
</defs>
</svg>
