<svg width="70" height="86" viewBox="0 0 70 86" fill="none" xmlns="http://www.w3.org/2000/svg">
<g clip-path="url(#clip0_48_0)">
<path d="M63.2542 0H6.08051C2.6693 0 -0.105469 2.77477 -0.105469 6.18597V79.814C-0.105469 83.2252 2.6693 86 6.08051 86H63.2542C67.0997 86 70.2282 82.8716 70.2282 79.026V6.97398C70.2282 3.12842 67.0997 0 63.2542 0V0ZM66.8688 79.026C66.8688 81.0193 65.2475 82.6406 63.2542 82.6406H61.5496C62.1913 81.5862 62.5613 80.3481 62.5613 79.026V40.5631C62.5613 39.6354 61.8094 38.8835 60.8816 38.8835C59.9539 38.8835 59.2019 39.6354 59.2019 40.5631V79.026C59.2019 81.0193 57.5806 82.6406 55.5873 82.6406H6.08051C4.52155 82.6406 3.25391 81.3723 3.25391 79.814V6.18597C3.25391 4.62767 4.5222 3.35938 6.08051 3.35938H55.5873C57.5806 3.35938 59.2019 4.98067 59.2019 6.97398V22.788C59.2019 23.7157 59.9539 24.4677 60.8816 24.4677C61.8094 24.4677 62.5613 23.7157 62.5613 22.788V6.97398C62.5613 5.65189 62.1913 4.41443 61.5496 3.35938H63.2542C65.2475 3.35938 66.8688 4.98067 66.8688 6.97398V79.026Z" fill="#2867F3"/>
<path d="M31.2279 13.9255C22.1484 13.9255 14.7617 21.3116 14.7617 30.3891C14.7617 39.4673 22.1484 46.8533 31.2279 46.8533C40.3074 46.8533 47.6941 39.4673 47.6941 30.3891C47.6941 21.3116 40.3074 13.9255 31.2279 13.9255V13.9255ZM44.2278 28.7101H40.8612C40.6604 25.1873 39.8324 22.0228 38.5634 19.5348C41.6046 21.5957 43.7376 24.8993 44.2278 28.7101ZM29.5482 17.8236V28.7101H24.9599C25.3109 23.2655 27.3358 19.2264 29.5482 17.8236ZM29.5482 32.0694V42.9553C27.3358 41.5525 25.3109 37.5133 24.9599 32.0694H29.5482ZM32.9076 42.9553V32.0688H37.4959C37.1449 37.5133 35.1201 41.5525 32.9076 42.9553ZM32.9076 28.7101V17.8236C35.1201 19.2264 37.1449 23.2655 37.4959 28.7101H32.9076ZM23.8924 19.5348C22.6234 22.0228 21.7954 25.1873 21.5946 28.7101H18.228C18.7182 24.8993 20.8512 21.5957 23.8924 19.5348ZM18.228 32.0694H21.5946C21.7954 35.5915 22.6234 38.756 23.8924 41.2441C20.8512 39.1832 18.7182 35.8796 18.228 32.0694ZM38.5634 41.2441C39.8324 38.756 40.6604 35.5915 40.8612 32.0694H44.2278C43.7376 35.8796 41.6046 39.1832 38.5634 41.2441Z" fill="#2867F3"/>
<path d="M50.3955 67.0852H12.0605C11.1328 67.0852 10.3809 66.3332 10.3809 65.4055V55.7827C10.3809 54.8549 11.1328 54.103 12.0605 54.103H50.3955C51.3232 54.103 52.0752 54.8549 52.0752 55.7827V65.4055C52.0752 66.3326 51.3232 67.0852 50.3955 67.0852ZM13.7402 63.7258H48.7158V57.4624H13.7402V63.7258Z" fill="#2867F3"/>
<path d="M60.8816 32.7539C60.772 32.7539 60.6611 32.7434 60.5542 32.7217C60.4466 32.7001 60.3403 32.6686 60.2399 32.6266C60.1375 32.5846 60.0398 32.5321 59.9492 32.4718C59.8567 32.4094 59.7714 32.3405 59.694 32.2618C59.6166 32.1844 59.5464 32.0991 59.4854 32.0066C59.425 31.916 59.3732 31.8183 59.3312 31.7172C59.2892 31.6149 59.257 31.5112 59.2354 31.4036C59.2137 31.294 59.2019 31.1851 59.2019 31.0762C59.2019 30.9653 59.2137 30.8557 59.2354 30.7468C59.257 30.6392 59.2892 30.5329 59.3312 30.4325C59.3732 30.3315 59.425 30.2331 59.4854 30.1419C59.5464 30.0493 59.6166 29.964 59.694 29.8866C59.7714 29.8092 59.8567 29.739 59.9492 29.6786C60.0398 29.6183 60.1375 29.5658 60.2399 29.5238C60.3403 29.4818 60.4466 29.4503 60.5542 29.428C60.7707 29.3847 60.9938 29.3847 61.211 29.428C61.3166 29.4503 61.4222 29.4818 61.5246 29.5238C61.6256 29.5658 61.7227 29.6183 61.8139 29.6786C61.9058 29.739 61.9918 29.8092 62.0692 29.8866C62.146 29.964 62.2168 30.0493 62.2791 30.1419C62.3395 30.2324 62.3913 30.3315 62.4333 30.4325C62.4753 30.5336 62.5075 30.6392 62.5291 30.7468C62.5508 30.8557 62.5613 30.9653 62.5613 31.0762C62.5613 31.1851 62.5508 31.294 62.5291 31.4036C62.5075 31.5112 62.4753 31.6149 62.4333 31.7172C62.3913 31.8183 62.3395 31.916 62.2791 32.0066C62.2168 32.0991 62.146 32.1844 62.0692 32.2618C61.7569 32.5754 61.3251 32.7539 60.8816 32.7539V32.7539Z" fill="#2867F3"/>
<path d="M41.0691 75.5664H21.3866C20.4588 75.5664 19.7069 74.8145 19.7069 73.8867C19.7069 72.9596 20.4588 72.207 21.3866 72.207H41.0691C41.9969 72.207 42.7488 72.9596 42.7488 73.8867C42.7488 74.8145 41.9969 75.5664 41.0691 75.5664Z" fill="#2867F3"/>
</g>
<defs>
<clipPath id="clip0_48_0">
<rect width="70" height="86" fill="white"/>
</clipPath>
</defs>
</svg>
