<svg width="160" height="40" viewBox="0 0 160 40" fill="none" xmlns="http://www.w3.org/2000/svg">
<g clip-path="url(#clip0_29_146)">
<path d="M41.76 18.4656C42.4 19.2064 43.2 19.7355 44.2134 20.1058C45.2267 20.4762 46.3467 20.6878 47.7334 20.6878C48.3734 20.6878 49.0667 20.6349 49.6 20.582C50.1867 20.5291 50.6667 20.3704 51.1467 20.2116C51.6267 20.1058 52 19.8942 52.4267 19.7355C52.7467 19.5238 53.0667 19.418 53.3334 19.2593L52.8534 18.254L52.0534 18.6243L51.2 18.9418C50.88 18.9947 50.56 19.1534 50.1334 19.1534C49.76 19.2064 49.28 19.2064 48.7467 19.2064C47.7334 19.2064 46.88 18.9947 46.2934 18.6243C45.6534 18.254 45.1734 17.7249 44.7467 17.0899C44.4267 16.455 44.16 15.6614 44 14.8148L43.7867 11.9048L43.8934 9.41799C43.9467 8.57143 44.16 7.83069 44.48 7.19577C44.8 6.56085 45.2267 6.03175 45.8134 5.55556C46.4 5.18519 47.2 4.92064 48.2134 4.92064C49.12 4.92064 49.92 5.18519 50.6134 5.66138C51.2534 6.13757 51.68 6.93122 51.8934 7.8836H52.96V4.709C52.64 4.60318 52.32 4.44445 51.8934 4.33862C51.52 4.2328 51.0934 4.12698 50.6134 4.07407L49.28 3.96825C48.9067 3.96825 48.48 3.91534 48.16 3.91534C46.72 3.91534 45.4934 4.12698 44.4267 4.49735C43.4134 4.86773 42.56 5.50265 41.92 6.19048C41.28 6.87831 40.8 7.83069 40.48 8.88889C40.16 9.94709 40 11.164 40 12.4868C40 13.7566 40.1067 14.9206 40.48 15.9259C40.7467 16.9841 41.1734 17.8307 41.76 18.4656ZM106.507 20.2116C107.307 20.1587 108.107 19.8942 108.693 19.5767C109.333 19.2064 109.867 18.6773 110.24 17.9365C110.613 17.1958 110.827 16.2434 110.827 14.9735C110.827 14.0741 110.72 13.3333 110.453 12.6984C110.187 12.0635 109.813 11.5873 109.173 11.1111C108.587 10.7407 107.84 10.4762 106.933 10.2646C106.027 10.0529 104.907 10 103.573 10H102.187V6.13757C102.187 5.7672 102.24 5.50265 102.453 5.34392C102.667 5.2381 102.987 5.2381 103.52 5.2381H105.493L107.04 5.29101C107.413 5.34392 107.787 5.39683 107.947 5.60847C108.213 5.82011 108.427 6.08466 108.533 6.40212L109.013 7.77778H109.867V4.07407H97.7067V4.60318C97.76 4.60318 97.8134 4.65609 98.0267 4.65609C98.24 4.709 98.3467 4.76191 98.4 4.86773C98.4534 4.92064 98.5067 5.07937 98.6133 5.2381C98.6133 5.44974 98.6667 5.60847 98.6667 5.87302V18.4127C98.6667 18.6772 98.6667 18.9418 98.6133 19.0476C98.6133 19.2593 98.56 19.3651 98.4 19.418C98.3467 19.4709 98.1867 19.6296 98.0267 19.6296C97.8134 19.6825 97.76 19.6825 97.7067 19.6825V20.2116H103.84C104.8 20.3175 105.653 20.3175 106.507 20.2116ZM102.507 18.9947C102.4 18.8889 102.293 18.7302 102.293 18.5185C102.293 18.3069 102.24 18.0423 102.24 17.7249V10.9524H103.627C104.907 10.9524 105.813 11.2698 106.347 11.9577C106.88 12.5926 107.147 13.6508 107.147 15.1323C107.147 16.1376 107.093 16.8254 106.88 17.4074C106.667 17.9894 106.507 18.4127 106.133 18.7302C105.813 18.9947 105.493 19.2064 105.12 19.3122C104.747 19.3651 104.32 19.418 103.947 19.418L103.04 19.3122C102.827 19.2064 102.613 19.1534 102.507 18.9947ZM89.12 19.7884C89.0667 19.7884 89.0134 19.7355 88.8 19.7355C88.5867 19.6825 88.48 19.6296 88.4267 19.5238C88.3734 19.4709 88.32 19.3122 88.2133 19.1534C88.2133 18.9418 88.16 18.7831 88.16 18.5185V13.9683H89.8133C90.6667 13.9683 91.4667 13.9153 92.2667 13.7566C93.0667 13.5979 93.7067 13.3862 94.2934 13.0159C94.88 12.6455 95.36 12.1693 95.68 11.4286C96 10.7937 96.2133 9.84127 96.2133 8.73016C96.2133 7.67196 96 6.8254 95.7334 6.24339C95.4134 5.66138 94.9333 5.13228 94.4 4.81482C93.8667 4.49736 93.2267 4.28571 92.48 4.2328L90.24 4.12698H83.7334V4.65609C83.7867 4.65609 83.84 4.709 84.0534 4.709C84.2667 4.76191 84.3734 4.81482 84.4267 4.92064C84.48 4.97355 84.5333 5.13228 84.64 5.29101C84.64 5.50265 84.6934 5.66138 84.6934 5.92593V18.4127C84.6934 18.6772 84.6934 18.9418 84.64 19.0476C84.64 19.2593 84.5867 19.3651 84.4267 19.418C84.3734 19.4709 84.2134 19.6296 84.0534 19.6296C83.84 19.6825 83.7867 19.6825 83.7334 19.6825V20.2116H89.12V19.7884ZM88.2133 5.92593C88.2133 5.82011 88.2134 5.66138 88.2667 5.55556C88.2667 5.44974 88.32 5.34392 88.3734 5.29101C88.4267 5.2381 88.5867 5.18519 88.7467 5.18519C88.96 5.18519 89.12 5.13228 89.4934 5.13228C89.8667 5.13228 90.2934 5.18519 90.6667 5.2381C91.04 5.34392 91.3067 5.55556 91.68 5.82011C91.9467 6.08466 92.16 6.45503 92.32 6.93122C92.4267 7.40741 92.5334 7.98942 92.5334 8.62434C92.5334 10 92.32 11.0582 91.9467 11.7989C91.5733 12.5397 90.8267 12.9101 89.8133 12.9101H88.16L88.2133 5.92593ZM81.5467 16.5608H80.48C80.3734 17.1958 80.2133 17.672 80.1067 18.0952C80 18.4656 79.84 18.7302 79.5733 18.9418C79.36 19.1534 79.04 19.2593 78.6667 19.2593C78.2934 19.3122 77.76 19.3122 77.0134 19.3122C76.3734 19.3122 75.84 19.3122 75.4667 19.2593C75.0934 19.2064 74.8267 19.1534 74.6133 18.9947C74.5154 18.9451 74.4334 18.8692 74.3769 18.7757C74.3203 18.6821 74.2913 18.5747 74.2934 18.4656C74.24 18.2011 74.24 17.9365 74.24 17.5661V12.4339H77.0667C77.3334 12.4339 77.6 12.4868 77.8667 12.4868C78.1334 12.4868 78.4 12.5397 78.6667 12.5926C78.9333 12.6455 79.1467 12.6984 79.3067 12.8571V10.7407C79.0934 10.8466 78.9333 10.9524 78.6667 11.0053C78.4 11.0582 78.1334 11.1111 77.8667 11.1111C77.6 11.164 77.3334 11.164 77.0667 11.164H74.24V5.87302C74.24 5.55556 74.2934 5.29101 74.3467 5.13228C74.4533 5.02646 74.6667 5.02646 74.9867 5.02646H76.8L78.3467 5.07937C78.72 5.13228 79.0934 5.18519 79.2534 5.39683C79.52 5.60847 79.7334 5.87302 79.84 6.19048L80.32 7.56614H81.1734V4.07407H69.8133V4.60318C69.8667 4.60318 69.92 4.65609 70.1334 4.65609C70.3467 4.709 70.4534 4.76191 70.5067 4.86773C70.56 4.92064 70.6134 5.07937 70.72 5.2381C70.72 5.44974 70.7734 5.60847 70.7734 5.87302V18.3598C70.7734 18.6243 70.7734 18.8889 70.72 18.9947C70.72 19.2064 70.6667 19.3122 70.5067 19.3651C70.4534 19.418 70.2934 19.5767 70.1334 19.5767C69.92 19.6296 69.8667 19.6296 69.8133 19.6296V20.1587H81.6C81.5467 20.2646 81.5467 16.5608 81.5467 16.5608ZM63.5734 20.2116C64.3734 20.1587 65.1734 19.8942 65.76 19.5767C66.4 19.2064 66.9334 18.6773 67.36 17.9365C67.7867 17.1958 67.9467 16.2434 67.9467 14.9735C67.9467 14.0741 67.84 13.3333 67.5733 12.6984C67.3067 12.0635 66.9334 11.5873 66.2934 11.1111C65.7067 10.7407 64.96 10.4762 64.0534 10.2646C63.1467 10.0529 62.0267 10 60.6934 10H59.3067V6.13757C59.3067 5.7672 59.36 5.50265 59.5734 5.34392C59.7867 5.2381 60.1067 5.2381 60.64 5.2381H62.6134L64.16 5.29101C64.5334 5.34392 64.9067 5.39683 65.0667 5.60847C65.3334 5.82011 65.5467 6.08466 65.6534 6.40212L66.1334 7.77778H66.9867V4.07407H54.8267V4.60318C54.88 4.60318 54.9334 4.65609 55.1467 4.65609C55.36 4.709 55.4667 4.76191 55.52 4.86773C55.5734 4.92064 55.6267 5.07937 55.7334 5.2381C55.7334 5.44974 55.7867 5.60847 55.7867 5.87302V18.3598C55.7867 18.6243 55.7867 18.836 55.7334 18.9947C55.7334 19.2064 55.68 19.3122 55.52 19.3651C55.4667 19.418 55.3067 19.5767 55.1467 19.5767C54.9334 19.6296 54.88 19.6296 54.8267 19.6296V20.2116H60.96C61.92 20.3175 62.72 20.3175 63.5734 20.2116ZM59.52 18.9947C59.4134 18.8889 59.3067 18.7302 59.3067 18.5185C59.3067 18.3069 59.2534 18.0423 59.2534 17.7249V10.9524H60.64C61.92 10.9524 62.8267 11.2698 63.36 11.9577C63.8934 12.5926 64.16 13.6508 64.16 15.1323C64.16 16.1376 64.1067 16.8254 63.8934 17.4074C63.68 17.9894 63.52 18.4127 63.1467 18.7302C62.8267 18.9947 62.5067 19.2064 62.1334 19.3122C61.76 19.3651 61.3334 19.418 60.96 19.418L60.0534 19.3122C59.84 19.2064 59.68 19.1534 59.52 18.9947ZM39.9467 24.9206H159.947V26.5079H39.9467V24.9206ZM150.347 14.2328L151.253 15.5026L152.96 17.8307L153.813 19.1534C154.08 19.5238 154.293 20 154.453 20.4233L160 20.4762L158.293 18.6772L156.96 17.2487L155.573 15.6614L154.293 14.2328L153.173 12.8042C152.853 12.381 152.427 11.746 152.107 11.2169L152.373 10.8995C152.747 10.3704 153.227 9.84127 153.76 9.20635L155.413 7.30159L157.12 5.50265L158.667 4.2328H154.827C154.72 4.55027 154.507 4.97355 154.24 5.39683L153.333 6.93122L152.267 8.62434L151.147 10.2646L150.08 11.6931L149.28 12.8042C149.333 12.8571 150.347 14.2328 150.347 14.2328ZM149.867 19.7884C149.813 19.7884 149.76 19.7355 149.547 19.7355C149.333 19.6825 149.227 19.6296 149.173 19.5238C149.12 19.4709 149.067 19.3122 148.96 19.1534C148.96 18.9418 148.907 18.7831 148.907 18.5185V5.97884C148.907 5.71429 148.907 5.44974 148.96 5.34392C148.96 5.13228 149.013 5.02646 149.173 4.97355C149.227 4.92064 149.387 4.86773 149.547 4.76191C149.76 4.709 149.813 4.709 149.867 4.709V4.07407H144.533V4.60318C144.587 4.60318 144.64 4.65609 144.853 4.65609C145.067 4.709 145.173 4.76191 145.227 4.86773C145.28 4.92064 145.333 5.07937 145.44 5.2381C145.44 5.44974 145.493 5.60847 145.493 5.87302V18.3598C145.493 18.6243 145.493 18.8889 145.44 18.9947C145.44 19.2064 145.387 19.3122 145.227 19.3651C145.173 19.418 145.013 19.5767 144.853 19.5767C144.64 19.6296 144.587 19.6296 144.533 19.6296V20.1587H149.867V19.7884ZM114.293 18.3598L115.413 14.4974H120.64L121.387 16.6138L122.133 18.9947C122.347 19.6296 122.453 20.1058 122.453 20.4233H126.613C126.4 20.1058 126.24 19.6296 125.973 19.1005C125.707 18.5714 125.387 17.7778 125.067 16.8254L121.28 6.19048C121.067 5.71429 121.013 5.34392 120.96 5.02646L120.853 4.2328H116.16V4.76191C116.213 4.76191 116.267 4.81482 116.48 4.81482C116.693 4.86773 116.8 4.92064 116.853 5.02646C116.907 5.07937 116.96 5.2381 117.067 5.39683V5.71429C117.067 6.08466 117.013 6.50794 116.853 6.77249L114.187 13.2275L112.053 18.254L111.413 19.5767C111.2 19.8942 111.093 20.1587 110.933 20.4233H113.92C113.92 19.9471 114.08 19.2593 114.293 18.3598ZM118.027 6.77249L120.213 13.3333H115.733L118.027 6.77249ZM132.853 19.7884H132.747C132.693 19.7884 132.64 19.7355 132.427 19.7355C132.213 19.6825 132.107 19.6296 132.053 19.5238C132 19.4709 131.947 19.3122 131.84 19.1534C131.84 18.9418 131.787 18.7831 131.787 18.5185V12.2222H138.133V18.4127C138.133 18.6772 138.133 18.9418 138.08 19.0476C138.08 19.2593 138.027 19.3651 137.867 19.418C137.813 19.4709 137.653 19.6296 137.493 19.6296C137.28 19.6825 137.227 19.6825 137.173 19.6825V20.2116H142.56V19.6825C142.507 19.6825 142.453 19.6296 142.24 19.6296C142.027 19.5767 141.92 19.5238 141.867 19.418C141.813 19.3651 141.76 19.2064 141.653 19.0476C141.653 18.836 141.6 18.6772 141.6 18.4127V5.87302C141.6 5.60847 141.6 5.34392 141.653 5.2381C141.653 5.02646 141.707 4.92064 141.867 4.86773C141.92 4.81482 142.08 4.76191 142.24 4.65609C142.453 4.60318 142.507 4.60318 142.56 4.60318V4.07407H137.333V4.60318C137.387 4.60318 137.44 4.65609 137.653 4.65609C137.867 4.709 137.973 4.76191 138.027 4.86773C138.08 4.92064 138.133 5.07937 138.24 5.2381C138.24 5.44974 138.293 5.60847 138.293 5.87302V11.1111H131.947V5.92593C131.947 5.66138 131.947 5.39683 132 5.29101C132 5.07937 132.053 4.97355 132.213 4.92064C132.267 4.86773 132.427 4.81482 132.587 4.709C132.8 4.65609 132.853 4.65609 132.907 4.65609V4.12698H127.52V4.65609C127.573 4.65609 127.627 4.709 127.84 4.709C128.053 4.76191 128.16 4.81482 128.213 4.92064C128.267 5.02646 128.32 5.13228 128.427 5.29101C128.427 5.50265 128.48 5.66138 128.48 5.92593V18.4656C128.48 18.7302 128.48 18.9418 128.427 19.1005C128.427 19.3122 128.373 19.418 128.213 19.4709C128.16 19.5238 128 19.6825 127.84 19.6825C127.627 19.7355 127.573 19.7355 127.52 19.7355V20.2646H132.907L132.853 19.7884ZM29.0134 5.82011L28 4.44444L9.65336 14.8677L0.800023 9.78836C0.586689 10.3704 0.480023 10.8995 0.426689 11.4815L9.76002 16.8254L29.0134 5.82011ZM9.65336 18.836L0.160023 13.3333C0.106689 13.6508 0.106689 14.0741 0.106689 14.3915C0.106689 23.0159 7.14669 30 15.84 30C24.5334 30 31.5734 23.0159 31.5734 14.3915C31.5734 11.8519 30.9867 9.41799 29.8667 7.30159L9.65336 18.836ZM26.7734 3.12169C26.2934 2.6455 25.8667 2.32804 25.3867 1.95767L9.70669 10.9524L2.13336 6.66667L1.33336 8.20106L9.60002 12.9101L26.7734 3.12169ZM23.7867 0.899471L21.92 0L9.65336 7.03704L4.16002 3.91534C3.78669 4.28572 3.46669 4.76191 3.04002 5.2381L9.60002 8.9418L23.7867 0.899471ZM107.147 38.3598L108.427 31.9048H110.453C111.627 31.9048 112.16 32.4868 112.16 33.4392C112.16 34.2857 111.627 34.7619 110.613 35.0794C111.253 35.3439 111.68 35.8201 111.68 36.455C111.68 37.6191 110.88 38.3069 109.28 38.3069H107.093V38.3598H107.147ZM107.893 37.7778H109.44C110.453 37.7778 111.04 37.2487 111.04 36.455C111.04 35.873 110.507 35.291 109.493 35.291H108.32L107.893 37.7778ZM108.533 34.7619H109.867C110.987 34.7619 111.573 34.2328 111.573 33.4392C111.573 32.8042 111.2 32.4339 110.4 32.4339H109.067L108.533 34.7619ZM116.213 37.1958C115.84 37.9365 115.36 38.4656 114.4 38.4656C113.333 38.4656 112.587 37.6191 112.587 36.455C112.587 35.0265 113.493 33.7566 114.773 33.7566C115.68 33.7566 116.16 34.2857 116.427 35.0794L115.84 35.1852C115.627 34.6032 115.307 34.2857 114.773 34.2857C113.92 34.2857 113.173 35.1852 113.173 36.5079C113.173 37.4074 113.653 37.8836 114.453 37.8836C115.2 37.8836 115.467 37.5132 115.733 37.037C115.733 36.9841 116.213 37.1958 116.213 37.1958ZM117.6 36.1376V36.455C117.6 37.3545 118.08 37.8836 118.773 37.8836C119.413 37.8836 119.84 37.4074 120.213 36.8254L120.747 37.09C120.213 37.8836 119.68 38.4127 118.72 38.4127C117.653 38.4127 117.013 37.6191 117.013 36.455C117.013 34.8677 117.92 33.7037 119.253 33.7037C120.32 33.7037 120.907 34.3386 120.907 35.5556C120.907 35.7672 120.853 35.9259 120.853 36.1376H117.6ZM120.32 35.6085C120.373 35.5027 120.32 35.3968 120.32 35.3439C120.32 34.8148 120 34.2857 119.253 34.2857C118.4 34.2857 117.973 34.8148 117.707 35.6614H120.267L120.32 35.6085ZM122.4 33.8624H124.96L124.907 34.3915H122.933L122.133 38.4127H121.547C121.547 38.3598 122.4 33.8624 122.4 33.8624ZM124.48 37.8307L126.4 33.8624H127.307L127.84 37.8836H128.32L128.053 39.2593H127.573L127.627 38.4127H124.533L124.267 39.2593H123.787L124.053 37.8836H124.48V37.8307ZM127.2 37.8307L126.88 34.3915H126.773L125.173 37.8307H127.2ZM132.053 35.7143C132.053 35.5027 132.107 35.3439 132.107 35.1852C132.107 34.6561 131.733 34.3386 131.093 34.3386C130.72 34.3386 130.347 34.5503 130.08 34.8677L129.707 34.4974C130.08 34.1799 130.56 33.8624 131.253 33.8624C132.16 33.8624 132.8 34.4445 132.8 35.1852C132.8 35.291 132.747 35.5556 132.747 35.9259L132.427 37.4603C132.32 37.9894 132.32 38.3069 132.32 38.5714H131.733C131.68 38.4656 131.68 38.254 131.68 38.0423C131.307 38.3598 130.88 38.6243 130.347 38.6243C129.6 38.6243 129.013 38.0423 129.013 37.3016C129.013 36.4021 129.867 35.7672 131.467 35.7672C131.413 35.7143 132.053 35.7143 132.053 35.7143ZM131.947 36.1376H131.467C130.187 36.1376 129.547 36.455 129.547 37.1429C129.547 37.619 129.867 37.9365 130.347 37.9365C130.827 37.9365 131.2 37.672 131.68 37.3545L131.947 36.1376ZM137.547 34.3915C137.92 34.0212 138.347 33.7566 138.88 33.7566C139.893 33.7566 140.427 34.3915 140.427 35.6614C140.427 37.3016 139.413 38.4656 138.24 38.4656C137.653 38.4656 137.227 38.2011 136.907 37.8836L136.427 40.1587H135.84L137.12 33.8095H137.653L137.547 34.3915ZM137.067 37.2487C137.333 37.6191 137.653 37.8836 138.24 37.8836C139.093 37.8836 139.893 36.8783 139.893 35.5026C139.893 34.6561 139.52 34.1799 138.827 34.1799C138.347 34.1799 137.92 34.3915 137.547 34.9735L137.067 37.2487ZM142.987 36.2963L141.547 38.4127H140.907L142.453 36.2963C141.867 36.0847 141.547 35.6614 141.547 35.1323C141.547 34.5503 142.08 33.8624 143.147 33.8624H145.333L144.427 38.4127H143.84L144.213 36.2963H142.987ZM144.48 34.2857H143.04C142.4 34.2857 142.027 34.6561 142.027 35.0265C142.027 35.5026 142.293 35.6614 142.827 35.6614H144.16L144.48 34.2857ZM145.867 37.8307L147.787 33.8095H148.693L149.227 37.8307H149.707L149.44 39.2064H148.96L149.013 38.3598H145.92L145.653 39.2064H145.173L145.44 37.8307H145.867ZM148.48 37.8307L148.16 34.3915H148.053L146.453 37.8307H148.48ZM150.24 36.455C150.24 34.8677 151.253 33.7037 152.427 33.7037C153.44 33.7037 154.027 34.4974 154.027 35.6614C154.027 37.1958 153.013 38.4127 151.84 38.4127C150.88 38.4656 150.24 37.7249 150.24 36.455ZM150.827 36.6138C150.827 37.4603 151.307 37.9365 151.893 37.9365C152.693 37.9365 153.493 36.9312 153.493 35.6614C153.493 34.8148 153.013 34.2857 152.427 34.2857C151.627 34.2328 150.827 35.2381 150.827 36.6138ZM159.307 34.3915L157.333 38.4127H156.747L156.16 34.3915L155.36 38.4127H154.773L155.68 33.8624H156.693L157.227 37.7778L159.147 33.8624H160.16L159.253 38.4127H158.667L159.307 34.3915Z" fill="#918F90"/>
</g>
<defs>
<clipPath id="clip0_29_146">
<rect width="160" height="40" fill="white"/>
</clipPath>
</defs>
</svg>
