<svg width="160" height="39" viewBox="0 0 160 39" fill="none" xmlns="http://www.w3.org/2000/svg">
<g clip-path="url(#clip0_29_148)">
<path d="M54.1867 19.3926H49.76V16.6529H61.8133V19.3926H57.3867V26.9133H54.1867V19.3926ZM74.1333 16.6529V26.9133H71.04V20.9504L65.7067 26.967H62.9333V16.7066H66.0267V22.6157L71.36 16.6529H74.1333ZM79.4667 26.967H76.3733V16.7066H79.4667V20.467H84.48V16.7066H87.5733V26.967H84.48V23.0992H79.4667V26.967ZM89.8133 26.967V16.7066H92.9067V19.3926H96.1067C96.8533 19.3389 97.6533 19.4463 98.4 19.6612C99.84 20.1447 100.8 21.5414 100.747 23.0992C100.8 24.7645 99.68 26.2686 98.08 26.6447C97.44 26.8058 96.8 26.9133 96.1067 26.8595L89.8133 26.967ZM92.9067 24.4959H95.5733C96 24.5496 96.4267 24.4959 96.8 24.3347C97.28 24.1199 97.6 23.6364 97.6 23.1529C97.605 22.9032 97.5298 22.6585 97.3857 22.4553C97.2415 22.2521 97.0361 22.1011 96.8 22.0248C96.4267 21.9174 96 21.8637 95.6267 21.9174H92.96L92.9067 24.4959ZM105.227 26.967H102.133V16.7066H105.227V20.5744H106.08L109.813 16.7066H113.707L108.747 21.5413L113.92 26.9133H109.813L106.133 23.0455H105.28V26.967H105.227ZM127.04 21.8099C127.04 24.8719 124.533 27.2356 120.373 27.2356C116.213 27.2356 113.707 24.8719 113.707 21.8099C113.707 18.748 116.213 16.3843 120.427 16.3843C124.587 16.3843 127.04 18.748 127.04 21.8099ZM123.787 21.8099C123.787 20.1447 122.453 18.9091 120.373 18.9091C118.293 18.9091 116.96 20.1447 116.96 21.8099C116.96 23.4752 118.293 24.7645 120.373 24.7645C122.453 24.7645 123.787 23.4752 123.787 21.8099ZM143.52 21.8099C143.52 24.7645 141.173 26.2686 137.28 26.3761V27.3967H134.187V26.3223C130.293 26.2149 127.947 24.7108 127.947 21.7562C127.947 18.8017 130.293 17.1901 134.187 17.0827V16.062H137.28V17.0827C141.173 17.1901 143.52 18.8554 143.52 21.8099ZM134.187 19.3389C132.053 19.4463 131.093 20.4133 131.093 21.8099C131.093 23.2066 132.053 24.0661 134.187 24.1736V19.3389ZM140.373 21.8099C140.373 20.4133 139.467 19.4463 137.28 19.3389V24.1736C139.413 24.0661 140.373 23.1529 140.373 21.8099ZM160 21.8099C160 24.7645 157.653 26.2686 153.76 26.3761V27.3967H150.667V26.3223C146.773 26.2149 144.427 24.7108 144.427 21.7562C144.427 18.8017 146.773 17.1901 150.667 17.0827V16.062H153.76V17.0827C157.653 17.1901 160 18.8554 160 21.8099ZM150.667 19.3389C148.533 19.4463 147.573 20.4133 147.573 21.8099C147.573 23.2066 148.533 24.0661 150.667 24.1736V19.3389ZM156.853 21.8099C156.853 20.4133 155.947 19.4463 153.76 19.3389V24.1736C155.893 24.0661 156.853 23.1529 156.853 21.8099Z" fill="#918F90"/>
<path d="M42.7733 18.2107L43.36 16.3843L41.4933 16.438C40.64 16.3843 39.7867 16.1157 39.0933 15.5785H39.36C40.48 15.5785 41.5467 14.9339 42.0267 13.9132L42.8267 12.1405C42.1867 12.1405 41.5467 12.0868 40.9067 12.0331C40.32 11.8719 39.7333 11.5496 39.36 11.0661C38.8267 10.4752 38.0267 10.1529 37.2267 10.0992C36.9067 10.0992 36.5867 10.1529 36.2667 10.2603C36.32 10.0992 36.3733 9.99174 36.3733 9.83058C36.48 8.7562 36.2133 7.73554 35.5733 6.87603L34.1333 5.21074L33.28 7.25207C33.12 7.52066 32.9067 7.78926 32.64 8.00413C32.48 7.25207 32.16 6.60744 31.6267 6.07025C30.7733 5.15702 29.5467 4.67355 28.2667 4.67355C28.0533 4.67355 27.84 4.67355 27.6267 4.72727L25.92 5.04959C26.08 4.45868 26.2933 3.92149 26.6133 3.43802L27.52 1.9876L25.2267 2.14876L24.48 0.53719L23.04 1.34298L21.6533 0L20.32 1.34298L18.88 0.590909L18.1333 2.14876L15.7867 1.88017L16.6933 3.33058C17.0133 3.81405 17.2267 4.35124 17.3867 4.94215L15.7867 4.61983H15.7333C15.52 4.56612 15.3067 4.56612 15.04 4.56612C13.76 4.56612 12.5867 5.04959 11.68 5.96281C11.1467 6.5 10.7733 7.19835 10.6667 7.89669C10.4 7.73554 10.1867 7.46694 10.08 7.19835L9.22667 5.15702L7.78667 6.92975C7.14667 7.78926 6.88 8.80992 6.98667 9.8843C7.04 10.0455 7.04 10.2066 7.09333 10.314C6.77333 10.2066 6.45333 10.1529 6.13333 10.1529C5.33333 10.1529 4.53333 10.4752 4 11.1198C3.57333 11.6033 3.04 11.9256 2.45333 12.0868C1.81333 12.1942 1.17333 12.2479 0.48 12.1942L1.33333 13.9669C1.81333 14.9876 2.88 15.6322 4 15.6322H4.26667C3.57333 16.1694 2.72 16.438 1.86667 16.4917L0 16.438L0.586667 18.2645C1.01333 19.6612 2.24 20.7355 3.68 20.8967C3.52 21.8636 2.93333 22.6694 2.08 23.0992L0.64 23.6901L1.38667 25.0331C2.02667 26.0537 3.14667 26.6446 4.26667 26.5909C4.58667 26.5909 4.85333 26.5372 5.17333 26.4835C5.22667 26.8058 5.33333 27.1281 5.44 27.4504C5.70667 28.1488 5.70667 28.9545 5.49333 29.6529L4.85333 31.157L6.4 31.5868C6.77333 31.6942 7.09333 31.7479 7.46667 31.7479C7.73333 31.7479 8 31.6942 8.21333 31.6405L8.74667 31.4793C8.96 31.8554 9.17333 32.1777 9.49333 32.4463C10.5067 33.4669 11.8933 34.0041 13.7067 34.0041H14.9867L12.3733 35.1322L14.4 36.1529L16.8533 37.2273L16.5867 37.9256L17.28 38.2479C18.4 38.6777 19.6267 38.9463 20.8533 39H22.4533C23.68 38.9463 24.9067 38.6777 26.0267 38.2479L26.72 37.9256L26.5067 37.2273C27.36 36.905 28.2133 36.5289 29.0133 36.0992L30.9867 35.1322L28.3733 34.0579H29.6533C31.4667 34.0579 32.8533 33.5207 33.8667 32.5L34.6133 31.5331L35.1467 31.6942C35.4133 31.7479 35.6267 31.8017 35.8933 31.8017C36.2667 31.8017 36.64 31.7479 36.96 31.6405L38.5067 31.2107L37.8133 29.7603C37.5467 29.0083 37.5467 28.2025 37.8667 27.5041C37.9733 27.1818 38.08 26.8595 38.1333 26.4835C38.4533 26.5372 38.72 26.5909 39.04 26.5909C40.2133 26.5909 41.3333 26 41.9733 24.9793L42.72 23.6364L41.3333 23.0455C40.48 22.6157 39.8933 21.8099 39.7333 20.843C41.1733 20.6281 42.3467 19.6074 42.7733 18.2107Z" fill="white"/>
<path d="M21.6533 5.53303C20.16 5.53303 19.04 6.0165 18.7733 6.60741L21.6533 7.73551L24.5333 6.60741C24.2667 6.07022 23.1467 5.53303 21.6533 5.53303ZM21.7067 35.6157H21.6533C20.7467 35.6157 19.7867 35.5082 18.88 35.2396L18.1867 37.2272C19.3326 37.5494 20.5169 37.7121 21.7067 37.7107C22.88 37.7107 24.0533 37.5496 25.2267 37.2272L24.48 35.2396C23.5733 35.5082 22.6133 35.6157 21.7067 35.6157ZM27.2 33.6818C26.4 34.0578 25.6 34.3801 24.7467 34.6487L25.3333 36.2603C26.24 35.9917 27.2 35.6694 28.0533 35.2396L26.8267 34.8099L27.2 33.6818ZM16.16 33.6818L16.5333 34.8636L15.3067 35.2934C16.16 35.7231 17.0667 36.0454 18.0267 36.314L18.6133 34.7024C17.76 34.4339 16.96 34.1115 16.16 33.6818ZM21.6533 3.65286C22.72 3.65286 23.7867 3.92146 24.7467 4.40493L25.0667 3.49171L24.4267 3.59914L24.2667 3.27683L23.84 2.36361L23.04 2.79336L22.72 2.95452L22.5067 2.68592L21.6533 1.82642L20.5333 2.95452L20.2667 2.79336L19.4667 2.36361L19.04 3.27683L18.88 3.59914L18.24 3.49171C18.3467 3.81402 18.5067 4.08261 18.56 4.40493C19.52 3.92146 20.5867 3.65286 21.6533 3.65286ZM38.88 14.2355C39.04 14.2892 39.2 14.2892 39.3067 14.2892C39.9467 14.2892 40.48 13.9669 40.7467 13.376C39.7867 13.2148 38.9333 12.7314 38.3467 12.033C38.0267 11.7107 37.6 11.4958 37.1733 11.4958C36.8 11.4958 36.48 11.6033 36.16 11.8182C37.7067 12.6239 38.0267 13.9669 38.88 14.2355ZM4.05334 14.2892C4.21334 14.2892 4.37334 14.2355 4.48001 14.2355C5.33334 13.9132 5.65334 12.6239 7.14668 11.8182C6.82668 11.6033 6.50668 11.4958 6.18668 11.4958C5.70668 11.4958 5.28001 11.7107 5.01334 12.033C4.37334 12.7314 3.52001 13.2148 2.61334 13.376C2.88001 13.9669 3.41334 14.2892 4.05334 14.2892ZM39.3067 19.5537H39.36C40.96 19.5537 41.4933 17.8347 41.4933 17.8347H41.44C39.7333 17.781 38.1333 16.9752 37.12 15.6322C36 14.2355 35.0933 13 33.3333 12.5165L33.1733 12.4628L33.12 12.3016C33.0667 12.033 33.28 11.7644 33.6533 11.4958C36.1067 9.88427 34.4533 7.78923 34.4533 7.78923C34.4533 7.78923 33.76 9.45452 32.2133 9.45452H32.1067C31.9467 9.45452 31.7333 9.45452 31.5733 9.4008L31.3067 9.34708C31.5733 8.48757 31.3067 7.57435 30.6667 6.98344C30.0267 6.33881 29.1733 5.96278 28.2667 5.96278C28.1067 5.96278 27.9467 5.96278 27.7867 6.0165C28.32 6.71485 28.7467 7.89666 28.1067 8.64873C27.5733 9.29336 26.24 9.29336 26.24 10.2603C26.24 10.6363 26.6133 11.1198 27.2533 11.5496C29.2267 12.7851 31.2 14.5041 32.0533 16.7066C33.0667 19.5 31.9467 21.3801 30.2933 22.4008C30.6667 22.7231 31.0933 22.8843 31.5733 22.938H32C32.8533 22.9917 33.7067 22.7231 34.4 22.1859C34.24 22.938 33.92 23.6363 33.44 24.1735C32.64 25.1405 31.4133 25.6777 30.1333 25.6239C30.1333 26.1611 30.3467 26.6446 30.7733 26.9669C31.2 27.2355 31.68 27.4504 32.2133 27.5041C32.2133 27.5041 30.3467 27.8801 30.1333 30.6735C30.133 31.3823 29.9686 32.0812 29.6533 32.7148H29.7067C34.0267 32.7148 33.92 28.9545 33.92 28.9545C34.0277 29.2976 34.2219 29.6066 34.4836 29.8514C34.7454 30.0963 35.0657 30.2685 35.4133 30.3512C35.5733 30.4049 35.7333 30.4049 35.84 30.4049C36.1067 30.4049 36.32 30.3512 36.5867 30.2975C36.2133 29.2768 36.2133 28.095 36.5867 27.0744C36.9067 26.2148 37.0667 25.3016 37.0133 24.3884C37.4933 24.9793 38.2933 25.3016 39.04 25.2479C39.7333 25.2479 40.3733 24.9256 40.7467 24.3347C37.8667 23.1529 38.1333 19.2314 38.1333 19.2314C38.491 19.4372 38.8948 19.5481 39.3067 19.5537ZM38.4533 23.5826C37.28 22.9917 36.5333 21.4339 36.3733 20.8967C36.16 23.9586 34.6667 26.1074 32.96 28.1487C32.4267 28.7396 32 29.4917 31.7333 30.2438C31.8933 29.4917 32.2133 28.7396 32.6933 28.1487C34.2933 26.1611 35.84 23.7438 36 20.8967C36.1067 19.1777 35.68 17.4586 34.7733 16.0082C35.3067 17.6198 34.88 19.4463 33.6533 20.6281C33.6533 20.6281 36.64 17.0289 32.48 13.376C30.8267 11.9793 29.0133 11.1198 28.0533 10.4752C31.4133 11.6033 33.0667 10.3677 33.0667 10.3677C32.1067 11.1198 30.88 11.3884 29.7067 11.1735C29.92 11.281 30.1867 11.3884 30.4533 11.5496C33.28 13.1074 35.8933 15.6859 36.32 19.2314V19.1777C36.96 22.7231 38.4 23.6363 38.4533 23.5826Z" fill="white"/>
<path d="M11.1466 27.504C11.68 27.4502 12.16 27.2354 12.5866 26.9668C12.96 26.6445 13.2266 26.161 13.2266 25.6238C12 25.6775 10.7733 25.1403 9.91997 24.1734C9.43997 23.5825 9.11997 22.9379 8.95997 22.1858C9.65331 22.723 10.5066 22.9916 11.36 22.9379H11.7866C12.2666 22.8841 12.6933 22.723 13.0666 22.4007C11.4133 21.3263 10.24 19.4998 11.3066 16.7064C12.1066 14.4502 14.08 12.785 16.1066 11.5494C16.7466 11.1197 17.1733 10.6899 17.1733 10.2602C17.1733 9.34694 15.84 9.29323 15.3066 8.6486C14.6666 7.89653 15.0933 6.71471 15.6266 6.01637C15.4666 5.96265 15.3066 5.96265 15.1466 5.96265C14.24 5.96265 13.3866 6.33868 12.7466 6.98331C12.1066 7.57422 11.8933 8.48744 12.1066 9.34694L11.7866 9.40066C11.6266 9.45438 11.4133 9.45438 11.2533 9.45438H11.1466C9.59997 9.45438 8.85331 7.78909 8.85331 7.78909C8.85331 7.78909 7.19997 9.88413 9.65331 11.4957C10.08 11.7643 10.24 12.0329 10.1866 12.3015L10.1333 12.4626L9.97331 12.5164C8.21331 12.9998 7.30664 14.2354 6.18664 15.6321C5.11997 16.975 3.57331 17.7808 1.86664 17.8345C1.86664 17.8345 2.39997 19.5536 3.99997 19.5536H4.0533C4.42664 19.5536 4.8533 19.4461 5.17331 19.2312C5.17331 19.2312 5.43997 23.1527 2.55997 24.3345C2.93331 24.9255 3.57331 25.2478 4.26664 25.2478C5.06664 25.3015 5.81331 24.9792 6.29331 24.3345C6.29331 25.2478 6.39997 26.161 6.71997 27.0205C7.09331 28.0412 7.09331 29.223 6.71997 30.2436C6.93331 30.2974 7.19997 30.3511 7.46664 30.3511C7.62664 30.3511 7.78664 30.3511 7.89331 30.2974C8.24093 30.2146 8.56129 30.0424 8.82304 29.7976C9.0848 29.5528 9.27899 29.2437 9.38664 28.9007C9.38664 28.9007 9.27997 32.661 13.6 32.661H13.6533C13.338 32.0274 13.1737 31.3284 13.1733 30.6197C13.0133 27.88 11.1466 27.504 11.1466 27.504ZM10.4533 28.1486C8.69331 26.1073 7.2533 23.9585 7.03997 20.8965C6.87997 21.4337 6.13331 22.9916 4.95997 23.5825C4.95997 23.5825 6.45331 22.6693 7.09331 19.1775V19.2312C7.51997 15.6858 10.08 13.1073 12.96 11.5494C13.2266 11.3883 13.4933 11.2808 13.7066 11.1734C12.5333 11.442 11.3066 11.1197 10.3466 10.3676C10.3466 10.3676 12 11.6031 15.36 10.475C14.4 11.066 12.5866 11.9255 10.9333 13.3759C6.7733 17.0288 9.75997 20.6279 9.75997 20.6279C8.5333 19.4461 8.10664 17.6197 8.63997 16.0081C7.73331 17.4585 7.35997 19.1775 7.4133 20.8965C7.51997 23.6899 9.06664 26.161 10.6666 28.1486C11.1466 28.7932 11.4666 29.4916 11.6266 30.2974C11.4133 29.4916 10.9866 28.7932 10.4533 28.1486ZM18.4533 13.8056C18.5066 13.8593 18.6133 13.9668 18.6666 14.0742L18.72 14.1279L18.9333 14.3965L18.9866 14.4502C19.04 14.5577 19.1466 14.6651 19.2 14.7726C19.68 15.7395 20.64 16.3841 21.7066 16.4916C22.7733 16.3841 23.7333 15.7395 24.2133 14.7726C24.2666 14.6651 24.3733 14.5577 24.4266 14.4502L24.48 14.3965C24.5333 14.2891 24.5866 14.2354 24.6933 14.1279L24.7466 14.0742C24.8 13.9668 24.9066 13.9131 24.96 13.8056L25.0133 13.7519C25.3333 13.4296 25.76 13.161 26.1866 13.0536L25.9733 12.8924L25.12 12.3552L24.2133 11.818L21.8133 13.161L19.4133 11.8717L17.6 12.9461L17.3866 13.0536C17.7066 13.2147 18.1333 13.4833 18.4533 13.8056ZM20.6933 13.7519H22.72V14.4502C22.5066 14.2891 22.2933 14.1817 22.0266 14.2354V15.256C22.0266 15.5246 22.08 15.7395 22.24 15.9544H21.2266C21.3333 15.7395 21.44 15.4709 21.44 15.2023V14.1817C21.3158 14.159 21.188 14.1667 21.0673 14.2041C20.9467 14.2415 20.8367 14.3075 20.7466 14.3965L20.6933 13.7519Z" fill="white"/>
<path d="M21.44 12.3553V8.21889L18.8267 7.30566L19.52 11.2809L21.44 12.3553ZM20.9067 9.23955V9.88418L20.8 9.83046C20.5867 9.77674 20.4267 9.6693 20.2667 9.50814C20 9.34699 19.7867 9.02467 19.7333 8.70236L20.9067 9.23955ZM23.7867 11.3346L24.48 7.35938L21.8667 8.21889V12.3553L23.7867 11.3346ZM22.4533 9.23955L23.6267 8.75608C23.5733 9.07839 23.36 9.40071 23.0933 9.56186C22.9333 9.72302 22.7733 9.83046 22.56 9.88418L22.4533 9.9379V9.23955ZM17.76 21.9172C17.9733 21.971 18.24 22.0247 18.5067 22.0247V21.971C18.5067 21.9172 18.56 21.8635 18.56 21.8098C18.6133 21.5949 18.6133 21.38 18.6133 21.1652C18.4533 21.0577 18.3467 20.9503 18.2933 20.7891C18.24 20.628 18.0267 20.4668 17.8667 20.4668C17.6533 20.4668 17.3867 20.5743 17.2267 20.6817C17.0667 21.2189 17.3333 21.7024 17.76 21.9172ZM23.5733 19.7148C23.0933 20.2519 22.1334 21.1652 22.08 21.2189L22.0267 21.2726L19.04 21.2189C19.04 21.4875 18.9867 21.7024 18.9333 21.971V22.0784L22.5067 22.723L24.32 21.4338C24.0533 21.0577 24 20.5743 24.0533 20.1445C23.8591 20.0455 23.6938 19.8974 23.5733 19.7148Z" fill="white"/>
<path d="M23.9467 16.1157C23.4133 16.6529 22.7733 17.0289 22.0267 17.1364H21.3867C21.28 17.1364 21.1733 17.0827 21.0667 17.0827C21.0133 17.3513 21.0133 17.6199 21.12 17.8884C21.28 18.2108 21.5467 18.4256 21.8667 18.5331L21.9733 18.5868V18.748C21.9923 19.0208 22.0948 19.281 22.2667 19.4927C22.4387 19.7043 22.6716 19.8571 22.9333 19.9298L23.36 19.5C23.1467 19.124 23.2533 18.6405 23.5733 18.3182C23.4667 18.9628 23.7867 19.6075 24.3733 19.9298L24.5333 19.9835L24.48 20.1446C24.2667 20.7893 24.64 21.4876 25.28 21.7025L25.4933 21.7562L25.3867 21.9711C25.12 22.562 25.3867 23.2604 25.9733 23.5827H28.2133V21.8099C27.5733 21.7025 27.0933 21.219 26.9867 20.6281C26.6667 20.5744 26.3467 20.4132 26.1333 20.1446C25.8667 19.7686 25.8667 19.2851 26.08 18.9091C26.08 19.2851 26.24 19.6075 26.4533 19.8761C26.6667 20.0909 26.88 20.1984 27.2 20.2521H27.36V20.4132C27.4133 20.8967 27.7333 21.2727 28.2133 21.3802V17.781C28.2133 17.1901 28.3733 16.6529 28.5867 16.1157H23.9467ZM17.9733 17.781L17.92 20.0909L18.1867 20.1446L18.8267 17.8884L18.5067 17.1901L17.9733 17.781ZM25.0133 28.3637H25.0667C25.44 28.4711 25.5467 29.9215 26.24 30.0289H26.4533C26.6133 30.0289 26.8267 29.9215 26.88 29.7604L26.24 28.8471C25.8667 28.3637 25.6 27.7727 24.96 27.7727H24.9067C24.8 27.7727 24.64 27.8265 24.5333 27.8802C24.32 27.719 24.0533 27.6653 23.7867 27.6653C23.4667 27.719 23.2 27.7727 22.88 27.8802L21.44 27.719C21.2267 27.6653 21.0667 27.5579 20.96 27.3967V27.2893C20.9603 26.9018 20.8356 26.5246 20.6048 26.2146C20.374 25.9046 20.0494 25.6785 19.68 25.5703C19.68 25.5703 19.7333 25.3554 19.6267 25.248L19.3067 25.624L18.24 25.0868L18.9867 25.9463L18.3467 26.6446C18.2933 26.6984 18.24 26.8058 18.2933 26.8595L18.56 27.1281L18.9333 26.9132H19.4133C19.52 26.9132 19.68 26.8595 19.68 26.7521C19.6267 27.1818 19.2533 27.9876 19.52 28.5785L19.7333 29.062L18.4533 28.9008L17.8667 29.9215C17.6533 30.1901 17.6533 30.5661 17.8133 30.8347L18.0267 31.1033C18.1867 30.9422 18.2933 30.781 18.4 30.5661L18.2933 30.4587C18.24 30.405 18.1867 30.2438 18.24 30.1901L18.6133 29.5455L20.1067 29.9215L20.2133 29.7604C20.32 29.5992 20.48 29.5455 20.64 29.5455H20.8533C21.2267 29.6529 21.6533 29.6529 22.08 29.6529C22.56 29.7066 22.9867 29.5455 23.36 29.2769C23.8933 30.0827 25.0133 30.2438 24.9067 30.6199L24.5867 32.0165C24.8 32.0165 24.96 32.0165 25.12 31.9628L25.3867 30.5124C25.44 30.3513 25.44 30.1364 25.44 30.1364C25.2267 29.9752 25.0667 29.7604 24.9067 29.4918C24.6933 29.1157 24.8 28.9008 24.64 28.4174C24.8 28.4174 24.9067 28.3637 25.0133 28.3637ZM19.3067 26.3223C19.2533 26.3223 19.2 26.2686 19.2 26.1612C19.2 26.1075 19.2533 26.0537 19.36 26.0537C19.4133 26.0537 19.52 26.1075 19.52 26.2149C19.4667 26.2686 19.4133 26.3223 19.3067 26.3223ZM17.28 29.7066C17.28 29.7066 17.76 29.4918 17.8133 29.3306L17.76 29.1694C17.7067 29.062 17.7067 28.9546 17.8133 28.9008L18.3467 28.5248L19.2533 28.686C19.1467 28.5248 19.0933 28.3637 19.0933 28.2025L18.24 28.0413L17.44 28.5248C17.12 28.7397 17.0667 29.1157 17.1733 29.4918L17.28 29.7066Z" fill="white"/>
<path d="M23.68 32.0703H24.2133L24.6933 30.6736C24.32 30.5124 24 30.3513 23.68 30.1364C23.84 30.3513 24.16 30.5661 24.1067 30.781L23.68 32.0703ZM28.1067 23.9587H15.2533V28.7934C15.2533 30.781 16.6933 32.0165 18.7733 32.0165C20.5333 32.0165 21.0133 32.0703 21.6533 32.7686C22.08 32.3389 22.6667 32.0703 23.2533 32.0703V32.0165L23.68 30.781L22.9867 30.0289C22.72 30.0827 22.4533 30.0827 22.1333 30.0827C21.7067 30.0827 21.28 30.0289 20.8533 29.9215H20.6933C20.64 29.9215 20.64 29.9215 20.64 29.9752L20.5333 30.1364L20.3733 30.405L20.1067 30.3513L18.88 30.0827L18.72 30.3513V30.405L18.88 30.5661L18.8267 30.781C18.72 31.0496 18.56 31.2645 18.3467 31.4794L18.0267 31.8017L17.76 31.4256L17.5467 31.157C17.3333 30.8347 17.28 30.4587 17.3867 30.1364L17.0667 30.2438L16.9067 29.9215L16.8 29.6529C16.5867 29.1157 16.7467 28.5248 17.1733 28.2025L18.1867 27.6653L19.1467 27.8802C19.1467 27.7727 19.2 27.4504 19.2533 27.3967H19.2L18.6667 27.6116L18.1333 27.2356C18.0267 27.1281 18.0267 26.967 18.1333 26.8595L18.6667 26.1075L17.3867 24.4959L19.3067 25.248L19.4667 25.0868L19.7333 24.7645L20.0533 25.0331C20.16 25.1405 20.2133 25.1942 20.2133 25.3017C20.7467 25.5165 21.76 26.1612 21.8133 27.1818L21.4933 27.2893C21.5467 27.343 21.6 27.3967 21.6533 27.3967L23.04 27.5579L23.1467 27.5042C23.4133 27.3967 23.6267 27.343 23.8933 27.343C24.16 27.343 24.4267 27.3967 24.64 27.5042C24.7467 27.4504 24.8533 27.4504 24.96 27.4504H25.0133C25.76 27.4504 26.1333 28.0413 26.4533 28.4711L26.6133 28.686L27.2533 29.6529L27.4133 29.9215L27.2 30.1364C27.04 30.3513 26.72 30.5124 26.4533 30.5124H26.1867C26.1333 30.5124 26.0267 30.4587 25.9733 30.4587C25.9733 30.5124 25.9733 30.6199 25.92 30.7273L25.7067 32.0165C27.1467 31.6942 28.2133 30.405 28.1067 28.9008V23.9587ZM15.2533 23.5827H25.28C24.8533 23.1529 24.7467 22.5083 24.9067 21.9711C24.7467 21.9174 24.64 21.8099 24.5333 21.7025L22.6133 23.0992L22.56 23.1529L18.6133 22.4546H18.1333C18.08 22.6157 17.92 22.7769 17.76 22.7769H17.7067C17.4933 22.7232 17.3333 22.562 17.3867 22.3471V22.2397C16.8533 21.8637 16.64 21.219 16.7467 20.6281V20.5744L16.8 20.5207C16.8 20.5207 16.8533 20.467 16.96 20.4132L16.6933 20.3595C16.5867 20.3595 16.5333 20.2521 16.5333 20.1446C16.5333 20.0372 16.64 19.9835 16.7467 19.9835L17.44 20.0909L17.4933 17.6736L18.5067 16.5992L19.1467 17.9422L18.5067 20.2521L19.0933 20.3595C19.2 20.3595 19.2533 20.467 19.2533 20.5744C19.2533 20.6818 19.1467 20.7356 19.04 20.7356H18.9867L18.5067 20.6281V20.6818C18.56 20.7893 18.6667 20.843 18.72 20.8967L21.7067 20.9504L22.4533 20.1984C21.8667 19.9835 21.44 19.5 21.3867 18.8554C21.0133 18.6942 20.6933 18.4256 20.5333 18.0496C20.3733 17.7273 20.3733 17.3513 20.48 16.9752C20 16.7604 19.5733 16.4918 19.2533 16.1157H14.8267C15.04 16.6529 15.1467 17.1901 15.2 17.781C15.2533 17.781 15.2533 23.5827 15.2533 23.5827Z" fill="white"/>
<path d="M19.36 26.0535C19.3066 26.0535 19.2 26.1073 19.2 26.161C19.2 26.2147 19.2533 26.3221 19.3066 26.3221C19.36 26.3221 19.4666 26.2684 19.4666 26.2147C19.4666 26.1073 19.4133 26.0535 19.36 26.0535ZM28.1066 34.9172L27.36 34.6486L27.5733 33.8965L27.7866 33.037C26.7733 33.5742 25.7066 34.004 24.64 34.2725C24.1066 34.4337 23.7333 34.4874 23.7333 34.4874V35.0246C23.0809 35.1316 22.421 35.1855 21.76 35.1858H21.7066C21.0133 35.1858 20.3733 35.1321 19.7333 35.0246V34.4874C19.7333 34.4874 19.36 34.4337 18.8266 34.2725C17.76 33.9502 16.6933 33.5205 15.68 33.037L15.8933 33.8965L16.1066 34.6486L15.2533 34.9172L14.4533 35.2395C15.5733 35.8304 16.6933 36.3139 17.92 36.6899L17.6 37.442C18.88 37.9254 20.2666 38.194 21.6533 38.1403H21.7066C23.0933 38.194 24.48 37.9254 25.76 37.442L25.4933 36.6899C26.6666 36.3139 27.84 35.8304 28.9066 35.2395L28.1066 34.9172ZM15.3066 35.2932L16.5333 34.8635L16.16 33.6816C16.96 34.0577 17.76 34.38 18.6133 34.6486L18.0266 36.2602C17.12 36.0453 16.2133 35.6692 15.3066 35.2932ZM21.7066 37.7106C20.5344 37.712 19.3677 37.5492 18.24 37.2271L18.9866 35.2395C19.8933 35.4544 20.8 35.5618 21.76 35.6155H21.8133C22.72 35.6155 23.68 35.5081 24.5866 35.2395L25.3333 37.2271C24.0533 37.5494 22.88 37.7643 21.7066 37.7106ZM25.3333 36.3139L24.7466 34.7023C25.6 34.4337 26.4 34.1114 27.2 33.7354L26.8266 34.9172L28.0533 35.3469C27.2 35.723 26.2933 36.0453 25.3333 36.3139ZM21.6533 4.13619C22.88 4.08247 24.0533 4.4585 25.0133 5.15685C25.1733 4.35106 25.44 3.599 25.8666 2.90065L24.64 3.06181L24 1.71883L22.7733 2.36346L21.6 1.18164L20.4266 2.36346L19.2 1.71883L18.56 3.06181L17.3333 2.90065C17.76 3.599 18.0266 4.35106 18.1866 5.15685C19.2533 4.4585 20.48 4.13619 21.6533 4.13619ZM18.56 3.54528L18.88 3.599L19.04 3.27668L19.4666 2.36346L20.2666 2.73949L20.5866 2.90065L21.6533 1.82627L22.7733 2.95437L23.0933 2.79321L23.8933 2.36346L24.32 3.27668L24.48 3.599L24.8 3.54528H25.0666C24.96 3.86759 24.8 4.13619 24.7466 4.4585C22.8266 3.43784 20.5333 3.43784 18.6133 4.4585C18.5066 4.13619 18.4 3.81387 18.2933 3.54528H18.56ZM39.36 20.0907C41.3333 20.0907 41.9733 18.1031 41.9733 17.9957L42.1866 17.2973H41.44C39.8933 17.2436 38.4533 16.4916 37.4933 15.3097L37.3333 15.1486C36.32 13.8593 35.4133 12.6775 33.7066 12.0866C33.76 12.0329 33.8666 11.9792 33.92 11.9254C34.72 11.442 35.3066 10.6899 35.4666 9.77668C35.5733 8.9709 35.3066 8.11139 34.8266 7.46676L34.2933 6.76842L33.9733 7.5742C33.9733 7.62792 33.3866 8.91718 32.16 8.91718H31.84C31.8933 8.05767 31.5733 7.25189 30.9866 6.60726C30.24 5.85519 29.28 5.42544 28.2133 5.47916C28 5.47916 27.84 5.47916 27.6266 5.53288L26.8266 5.69404L27.36 6.39238C27.7333 6.92957 28.1066 7.8428 27.68 8.37999C27.4666 8.54114 27.2533 8.7023 26.9866 8.80974C26.4533 9.07833 25.7066 9.40065 25.7066 10.3139C25.7066 10.9048 26.1866 11.4957 26.9866 12.0329C29.3866 13.5907 30.88 15.1486 31.52 16.975C32.5333 19.7147 31.2 21.2725 29.9733 22.0783L29.3866 22.4544L29.8666 22.9378C30.2933 23.3139 30.88 23.5825 31.4133 23.6362H31.8933C32.3733 23.6362 32.9066 23.5825 33.3333 23.4213C33.2221 23.6392 33.0781 23.8385 32.9066 24.0122C32.5507 24.4242 32.1065 24.7494 31.6076 24.9634C31.1088 25.1774 30.5682 25.2747 30.0266 25.2478H29.5466L29.4933 25.7312C29.4933 26.4296 29.76 27.0205 30.2933 27.504C30.4533 27.6114 30.56 27.7188 30.72 27.7725C29.92 28.5246 29.4933 29.599 29.44 30.7271C29.4316 31.3428 29.2857 31.9486 29.0133 32.4998L28.48 33.3056H29.44C30.9866 33.3056 32.2133 32.8759 33.0666 32.0163C33.4933 31.5329 33.8133 30.9957 34.0266 30.4048C34.3466 30.6734 34.72 30.8345 35.0933 30.942C35.3066 30.9957 35.4666 30.9957 35.68 30.9957C35.9466 30.9957 36.2666 30.942 36.5333 30.8883L37.12 30.7271L36.8533 30.1362C36.5334 29.2145 36.5334 28.2108 36.8533 27.2891C37.0666 26.6982 37.1733 26.1073 37.28 25.4626C37.76 25.7312 38.2933 25.8387 38.8266 25.8387C39.7333 25.8387 40.5333 25.4089 41.0133 24.6568L41.3333 24.1197L40.8 23.9048C38.9866 23.1527 38.6133 21.1651 38.5066 20.037C38.6666 20.0907 38.88 20.0907 39.04 20.0907H39.36ZM40.8 24.3345C40.4266 24.9254 39.7866 25.2478 39.0933 25.2478C38.2933 25.3015 37.5466 24.9792 37.0666 24.3345C37.0666 25.2478 36.9066 26.161 36.64 27.0205C36.2666 28.0411 36.2666 29.223 36.64 30.2436C36.3733 30.2973 36.16 30.3511 35.8933 30.3511C35.7333 30.3511 35.5733 30.3511 35.4666 30.2973C35.119 30.2146 34.7987 30.0424 34.5369 29.7976C34.2751 29.5528 34.0809 29.2437 33.9733 28.9006C33.9733 28.9006 34.08 32.661 29.76 32.661H29.7066C30.0219 32.0273 30.1863 31.3284 30.1866 30.6197C30.4 27.88 32.2133 27.4502 32.2133 27.4502C31.68 27.3965 31.2 27.1816 30.7733 26.913C30.4 26.5907 30.1333 26.1073 30.1333 25.5701C31.36 25.6238 32.5866 25.0866 33.44 24.1197C33.92 23.5287 34.24 22.8841 34.4 22.1321C33.7066 22.6692 32.8533 22.9378 32 22.8841H31.5733C31.0933 22.8304 30.6666 22.6692 30.2933 22.3469C31.9466 21.2725 33.12 19.4461 32.0533 16.6527C31.2533 14.3965 29.28 12.7312 27.2533 11.4957C26.6133 11.0659 26.1866 10.6362 26.1866 10.2064C26.1866 9.29321 27.52 9.23949 28.0533 8.59486C28.6933 7.8428 28.2666 6.66098 27.7333 5.96263C27.8933 5.90891 28.0533 5.90891 28.2133 5.90891C29.12 5.90891 29.9733 6.28495 30.6133 6.92957C31.2533 7.52048 31.4666 8.43371 31.2533 9.29321L31.52 9.34693C31.68 9.40065 31.8933 9.40065 32.0533 9.40065H32.16C33.7066 9.40065 34.4533 7.73536 34.4533 7.73536C34.4533 7.73536 36.1066 9.8304 33.6533 11.442C33.2266 11.7106 33.0666 11.9792 33.12 12.2478L33.1733 12.4089L33.3333 12.4626C35.0933 12.9461 36 14.1816 37.12 15.5783C38.1866 16.9213 39.7333 17.7271 41.44 17.7808H41.4933C41.4933 17.7808 40.96 19.4998 39.36 19.4998H39.3066C38.9333 19.4998 38.5066 19.3924 38.1866 19.1775C38.1866 19.2312 37.92 23.099 40.8 24.3345Z" fill="#918F90"/>
<path d="M35.9467 12.3014C36.5333 12.6237 37.0667 13.1072 37.4933 13.6981C37.8133 14.1816 38.24 14.5576 38.72 14.7725C38.9333 14.8262 39.1466 14.8799 39.3066 14.8799C40.1067 14.8799 40.8533 14.3965 41.2267 13.6981L41.5467 12.9998L40.8 12.8923C40.0005 12.7286 39.2726 12.3151 38.72 11.7105C38.2933 11.2808 37.76 11.0122 37.1733 11.0122C36.6933 11.0122 36.2667 11.1733 35.8933 11.3882L35.2 11.8717L35.9467 12.3014ZM37.1733 11.5494C37.6533 11.5494 38.08 11.7642 38.3467 12.0866C38.9867 12.7849 39.84 13.2684 40.7467 13.4295C40.48 13.9667 39.8933 14.289 39.3066 14.3428C39.1466 14.3428 38.9867 14.289 38.88 14.289C38.0267 13.9667 37.7067 12.6775 36.2133 11.8717C36.48 11.6031 36.8533 11.5494 37.1733 11.5494ZM36.2667 19.2312C35.84 15.6857 33.28 13.1072 30.4 11.5494C30.1333 11.3882 29.8667 11.2808 29.6533 11.1733C30.8267 11.4419 32.0533 11.1196 33.0133 10.3676C33.0133 10.3676 31.36 11.6031 28 10.475C28.96 11.0659 30.7733 11.9254 32.4267 13.3758C36.5867 17.0287 33.6 20.6279 33.6 20.6279C34.8267 19.4461 35.2533 17.6196 34.72 16.008C35.5733 17.4585 36 19.1775 35.9467 20.8965C35.84 23.7436 34.2933 26.2147 32.64 28.1485C32.16 28.7932 31.84 29.4915 31.68 30.2973C31.9467 29.5452 32.3733 28.7932 32.9067 28.2023C34.6667 26.1609 36.1067 24.0122 36.32 20.9502C36.48 21.4874 37.2267 23.0452 38.4 23.6361C38.4533 23.6361 36.96 22.7229 36.2667 19.2312ZM14.1333 32.3923C13.8667 31.8552 13.76 31.2642 13.7067 30.6196C13.7067 29.4915 13.2267 28.4171 12.4267 27.6651C12.5867 27.6114 12.7467 27.5039 12.8533 27.3965C13.3867 26.9667 13.6533 26.3221 13.6533 25.6238L13.6 25.1403H13.12C12 25.194 10.9333 24.7105 10.24 23.9047C10.0685 23.731 9.92457 23.5317 9.81333 23.3138C10.2933 23.475 10.7733 23.5287 11.2533 23.5287H11.7333C12.32 23.475 12.8533 23.2064 13.3333 22.8304L13.8133 22.3469L13.3333 22.0246C12.0533 21.2188 10.7733 19.6609 11.7867 16.9213C12.4267 15.1485 13.92 13.537 16.3733 11.9791C17.1733 11.4419 17.6533 10.851 17.6533 10.2601C17.6533 9.34689 16.9067 8.97086 16.3733 8.75598C16.1067 8.64854 15.8933 8.54111 15.68 8.32623C15.2533 7.84276 15.6267 6.87582 16 6.33863L16.5333 5.64028L15.7333 5.47912C15.52 5.4254 15.36 5.4254 15.1467 5.4254C14.08 5.37168 13.12 5.80144 12.3733 6.5535C11.7867 7.14441 11.4667 8.00392 11.52 8.86342H11.0933C9.86666 8.86342 9.33333 7.57416 9.27999 7.52044L8.95999 6.71466L8.42666 7.41301C7.94666 8.05763 7.67999 8.91714 7.78666 9.72292C7.86827 10.1749 8.04961 10.6026 8.31731 10.9745C8.58501 11.3464 8.93223 11.653 9.33333 11.8717C9.38666 11.9254 9.49333 11.9791 9.54666 12.0328C7.83999 12.57 6.93333 13.8056 5.91999 15.0948L5.75999 15.256C4.79999 16.4915 3.35999 17.1899 1.81333 17.2436H1.12L1.33333 17.9419C1.33333 18.0494 2.02666 20.037 3.94666 20.037H4.05333C4.21333 20.037 4.42666 19.9833 4.58666 19.9833C4.47999 21.0576 4.10666 23.099 2.29333 23.851L1.75999 24.0659L2.07999 24.6031C2.55999 25.3552 3.41333 25.7849 4.26666 25.7849C4.79999 25.7849 5.33333 25.6775 5.81333 25.4089C5.86666 26.0535 6.02666 26.6444 6.23999 27.2353C6.5599 28.157 6.5599 29.1607 6.23999 30.0824L5.97333 30.6733L6.55999 30.8345C6.82666 30.8882 7.14666 30.9419 7.41333 30.9419C7.62666 30.9419 7.78666 30.9419 7.99999 30.8882C8.37333 30.7808 8.74666 30.6196 9.06666 30.351C9.27999 30.9419 9.59999 31.5328 10.0267 31.9626C10.88 32.8221 12.0533 33.2519 13.6533 33.2519H14.6133L14.1333 32.3923ZM13.6533 32.6609C9.33333 32.6609 9.43999 28.9006 9.43999 28.9006C9.33235 29.2437 9.13815 29.5527 8.8764 29.7975C8.61464 30.0424 8.29429 30.2146 7.94666 30.2973C7.78666 30.351 7.62666 30.351 7.51999 30.351C7.25333 30.351 7.03999 30.2973 6.77333 30.2436C7.14666 29.2229 7.14666 28.0411 6.77333 27.0204C6.45333 26.1609 6.34666 25.2477 6.34666 24.3345C5.86666 24.9791 5.06666 25.3014 4.31999 25.2477H4.26666C3.57333 25.2477 2.93333 24.9254 2.55999 24.3345C5.43999 23.1527 5.17333 19.2312 5.17333 19.2312C4.85333 19.4461 4.47999 19.5535 4.05333 19.5535H3.99999C2.39999 19.5535 1.86666 17.8345 1.86666 17.8345H1.91999C3.62666 17.7808 5.22666 16.975 6.23999 15.632C7.35999 14.2353 8.26666 12.9998 10.0267 12.5163L10.1867 12.4626L10.24 12.3014C10.2933 12.0328 10.08 11.7642 9.70666 11.4957C7.25333 9.88408 8.90666 7.78904 8.90666 7.78904C8.90666 7.78904 9.59999 9.45433 11.2 9.45433H11.2533C11.4133 9.45433 11.6267 9.45433 11.7867 9.40061L12.0533 9.34689C11.7867 8.48739 12.0533 7.57416 12.6933 6.98325C13.3333 6.33863 14.1867 5.96259 15.0933 5.96259C15.2533 5.96259 15.4133 5.96259 15.5733 6.01631C15.04 6.71466 14.6667 7.89648 15.2533 8.64854C15.7867 9.29317 17.12 9.29317 17.12 10.2601C17.12 10.6361 16.7467 11.1196 16.1067 11.5494C14.1333 12.7849 12.16 14.5039 11.3067 16.7064C10.2933 19.4998 11.4667 21.3799 13.0667 22.4006C12.6933 22.7229 12.2667 22.8841 11.7867 22.9378H11.36C10.5067 22.9915 9.65333 22.7229 8.95999 22.1857C9.11999 22.9378 9.43999 23.6361 9.91999 24.1733C10.72 25.1403 11.9467 25.6775 13.2267 25.6238C13.2267 26.1609 13.0133 26.6444 12.5867 26.9667C12.16 27.2353 11.68 27.4502 11.1467 27.5039C11.1467 27.5039 13.0133 27.8799 13.2267 30.6733C13.2267 31.3717 13.3867 32.07 13.6533 32.6609ZM4.05333 14.8262C4.26666 14.8262 4.47999 14.7725 4.63999 14.7188C5.17333 14.5039 5.59999 14.1279 5.86666 13.6444C6.29333 13.1072 6.77333 12.6237 7.35999 12.2477L8.10666 11.818L7.46666 11.3882C7.09333 11.1196 6.61333 11.0122 6.18666 11.0122C5.59999 11.0122 5.01333 11.2808 4.63999 11.7105C4.10666 12.3552 3.35999 12.7849 2.55999 12.8923L1.81333 12.9461L2.13333 13.6444C2.45333 14.3965 3.19999 14.8262 4.05333 14.8262ZM4.95999 12.0866C5.27999 11.7642 5.70666 11.5494 6.13333 11.5494C6.50666 11.5494 6.82666 11.6568 7.09333 11.8717C5.59999 12.6775 5.27999 13.9667 4.42666 14.289C4.26666 14.3428 4.15999 14.3428 3.99999 14.3428C3.35999 14.3428 2.82666 14.0204 2.50666 13.4295C3.51999 13.2684 4.37333 12.7849 4.95999 12.0866ZM7.41333 20.8965C7.30666 19.1775 7.73333 17.4585 8.63999 16.008C8.10666 17.6196 8.53333 19.4461 9.75999 20.6279C9.75999 20.6279 6.77333 17.0287 10.9333 13.3758C12.5867 11.9791 14.4 11.1196 15.36 10.475C12 11.6031 10.3467 10.3676 10.3467 10.3676C11.3067 11.1196 12.5333 11.3882 13.7067 11.1733C13.4933 11.2808 13.2267 11.3882 12.96 11.5494C10.1333 13.1072 7.51999 15.6857 7.09333 19.2312V19.1775C6.45333 22.6692 4.95999 23.5824 4.95999 23.5824C6.13333 22.9915 6.87999 21.4337 7.03999 20.8965C7.25333 23.9585 8.74666 26.1072 10.4533 28.1485C10.9867 28.7395 11.4133 29.4915 11.68 30.2436C11.52 29.4915 11.2 28.7395 10.72 28.1485C9.11999 26.1609 7.57333 23.6899 7.41333 20.8965Z" fill="#918F90"/>
<path d="M20.6933 13.6982V14.3966C20.9066 14.2354 21.12 14.128 21.3866 14.1817V15.2024C21.3866 15.471 21.3333 15.6858 21.1733 15.9007H22.1866C22.08 15.6858 21.9733 15.4172 21.9733 15.2024V14.1817C22.0975 14.1591 22.2253 14.1668 22.3459 14.2042C22.4666 14.2416 22.5765 14.3075 22.6666 14.3966V13.6982H20.6933Z" fill="#918F90" stroke="#918F90" stroke-miterlimit="10"/>
<path d="M20.2667 9.56164C20.4267 9.7228 20.5867 9.83024 20.8 9.88396L20.9067 9.93768V9.29305L19.7333 8.75586C19.7867 9.07817 20 9.34677 20.2667 9.56164ZM23.0933 9.56164C23.36 9.40049 23.5733 9.07817 23.6267 8.75586L22.4533 9.23933V9.88396L22.56 9.83024C22.7733 9.77652 22.9333 9.66908 23.0933 9.56164Z" fill="#918F90"/>
<path d="M25.2267 6.82207C25.2267 5.80141 23.52 4.88818 21.7067 4.88818C19.84 4.88818 18.1867 5.80141 18.1867 6.82207L18.24 7.09066L18.9867 11.3882L18.1867 11.8179L16.2667 12.946C16.2667 12.946 15.84 13.1609 15.6267 13.3221C14.88 13.8593 14.72 14.5576 15.1467 14.8799C15.2534 14.1279 15.8934 13.5907 16.64 13.6444C17.28 13.6444 17.8134 13.9667 18.1867 14.5039C18.2934 14.6113 18.4 14.7725 18.4534 14.9336L18.7734 15.4171H13.8134C14.24 16.1155 14.4534 16.975 14.5067 17.7807V28.8469C14.5067 31.5328 16.5334 32.8221 18.7734 32.8221C20.48 32.8221 20.6934 32.7146 21.6534 33.6816C22.6134 32.7146 22.8267 32.8221 24.5334 32.8221C26.7734 32.8221 28.8 31.5328 28.8 28.8469V17.7807C28.8534 16.9212 29.12 16.1155 29.4934 15.4171H24.48L24.8 14.9336C24.9067 14.7725 25.0134 14.665 25.0667 14.5039C25.44 13.9667 25.9734 13.6981 26.6134 13.6444C27.36 13.6444 28 14.1816 28.1067 14.8799C28.5334 14.5576 28.3734 13.8055 27.6267 13.3221C27.4134 13.1609 26.9867 12.946 26.9867 12.946L25.1734 11.8179L24.4267 11.3882L25.1734 7.09066L25.2267 6.82207ZM18.88 7.30554L21.4934 8.21876V12.3551L19.5734 11.3345L18.88 7.30554ZM19.4134 16.1155C19.7867 16.4915 20.2134 16.7601 20.64 16.975C20.5334 17.351 20.5867 17.727 20.6934 18.0493C20.8534 18.4254 21.1734 18.694 21.5467 18.8551C21.6 19.4998 22.0267 19.9832 22.6134 20.1981L21.8667 20.9502L18.88 20.8964C18.7847 20.8542 18.7086 20.7776 18.6667 20.6816V20.6279L19.1467 20.7353H19.2C19.3067 20.7353 19.36 20.6816 19.4134 20.5741C19.4134 20.4667 19.36 20.3593 19.2534 20.3593L18.6667 20.2518L19.3067 17.9419L18.6667 16.5989L17.6534 17.6733L17.6 20.0907L16.9067 19.9832C16.8 19.9832 16.6934 20.0369 16.6934 20.1444C16.6934 20.2518 16.7467 20.3593 16.8534 20.3593L17.12 20.413C17.0134 20.4667 16.96 20.5204 16.96 20.5204L16.9067 20.5741V20.6279C16.7467 21.2188 17.0134 21.8634 17.5467 22.2394V22.3469C17.4934 22.5617 17.6534 22.7766 17.8667 22.7766H17.92C18.08 22.7766 18.24 22.6692 18.2934 22.4543H18.6667L22.6134 23.1526L22.6667 23.0989C22.9867 22.8841 24.16 22.0245 24.5867 21.7022C24.6934 21.8097 24.8534 21.8634 24.96 21.9708C24.8 22.5617 24.9067 23.1526 25.3334 23.5824H15.2534V17.7807C15.2534 17.1898 15.0934 16.6526 14.88 16.1155H19.4134ZM24.2134 21.4336C23.84 21.756 22.7734 22.4543 22.4 22.7229L18.8267 22.0783V22.0245C18.88 21.756 18.9334 21.5411 18.9334 21.2725L21.92 21.3262L21.9734 21.2725C22.0267 21.2188 22.9867 20.3055 23.4667 19.7683C23.5734 19.9295 23.7334 20.0907 23.8934 20.1981C23.8934 20.5741 24 21.0576 24.2134 21.4336ZM18.2934 20.789C18.4 20.9502 18.5067 21.0576 18.6134 21.165C18.6134 21.3799 18.56 21.5948 18.56 21.8097C18.56 21.8634 18.56 21.9171 18.5067 21.9708V22.0245C18.24 22.0245 18.0267 21.9708 17.76 21.9171C17.3334 21.7022 17.0667 21.2188 17.1734 20.7353C17.3867 20.5741 17.6 20.5204 17.8134 20.4667C18.0267 20.4667 18.1867 20.5741 18.2934 20.789ZM17.92 20.0907L17.9734 17.8345L18.5067 17.2973L18.8267 17.9956L18.1867 20.1981L17.92 20.0907ZM24.2134 32.07H23.68L24.1067 30.727C24.16 30.5659 23.84 30.2973 23.68 30.0824C24 30.2973 24.32 30.4584 24.6934 30.6196C24.6934 30.727 24.2134 32.07 24.2134 32.07ZM25.5467 30.5659L25.28 32.0163C25.12 32.0163 24.9067 32.07 24.7467 32.07L25.0667 30.6733C25.1734 30.2436 24.0534 30.1361 23.52 29.3303C23.1467 29.6526 22.72 29.7601 22.24 29.7064C21.8134 29.7064 21.44 29.6526 21.0134 29.5989H20.8C20.64 29.5989 20.48 29.6526 20.3734 29.8138L20.2667 29.9212L18.72 29.5452L18.3467 30.1898C18.2934 30.2973 18.2934 30.4047 18.4 30.4584L18.5067 30.5659C18.4 30.7807 18.2934 30.9419 18.1334 31.1031L17.92 30.8345C17.76 30.5659 17.76 30.1898 17.9734 29.9212L18.56 28.9006L19.84 29.1155L19.6267 28.632C19.36 28.0411 19.7867 27.2353 19.7867 26.8055C19.7867 26.9667 19.6267 26.9667 19.52 26.9667H19.04L18.6667 27.1816L18.4 26.913C18.3467 26.8055 18.3467 26.7518 18.4534 26.6981L19.0934 25.9998L18.3467 25.1402L19.4134 25.6774L19.7334 25.2477C19.84 25.3551 19.7867 25.57 19.7867 25.57C20.5867 25.7849 21.12 26.4832 21.0667 27.289V27.4502C21.1734 27.6113 21.3334 27.7188 21.5467 27.7725L22.9867 27.9336C23.2534 27.8262 23.5734 27.7725 23.8934 27.7188C24.16 27.7188 24.4267 27.8262 24.64 27.9336C24.7467 27.8799 24.8534 27.8262 25.0134 27.8262H25.0667C25.7067 27.8262 25.9734 28.4171 26.3467 28.9006L26.9867 29.8138C26.88 29.975 26.72 30.0824 26.56 30.0824H26.3467C25.6534 29.975 25.5467 28.5245 25.1734 28.4171H25.12C25.0667 28.4171 24.96 28.4708 24.96 28.5245C25.12 29.008 25.0134 29.2229 25.2267 29.5989C25.3867 29.8138 25.5467 30.0287 25.76 30.2436C25.6534 30.2436 25.6 30.4584 25.5467 30.5659ZM17.76 29.1692L17.8134 29.3303C17.76 29.4915 17.28 29.7064 17.28 29.7064L17.1734 29.4915C17.0134 29.1692 17.12 28.7394 17.44 28.5245L18.24 28.0411L19.0934 28.2022C19.0934 28.3634 19.1467 28.5245 19.2534 28.6857L18.3467 28.5245L17.8134 28.9006C17.76 28.9543 17.7067 29.1155 17.76 29.1692ZM25.7067 31.9626L25.9734 30.6733C25.9734 30.6196 26.0267 30.5121 26.0267 30.4047C26.08 30.4584 26.1867 30.4584 26.24 30.4584H26.5067C26.6516 30.4584 26.7945 30.4244 26.9241 30.3592C27.0537 30.2939 27.1664 30.1992 27.2534 30.0824L27.4667 29.8675L27.3067 29.6526C27.3067 29.6526 26.9334 29.0617 26.6667 28.6857L26.4534 28.4708C26.1334 28.0411 25.76 27.4502 25.0134 27.4502H24.96C24.8534 27.4502 24.7467 27.5039 24.64 27.5039C24.4267 27.3964 24.16 27.3427 23.8934 27.3427C23.6267 27.3427 23.36 27.3964 23.1467 27.5039L23.04 27.5576L21.6 27.3964C21.5467 27.3427 21.4934 27.3427 21.44 27.289L21.76 27.1816C21.6534 26.1609 20.6934 25.5163 20.16 25.3014C20.1067 25.194 20.0534 25.0865 20 25.0328L19.68 24.7642L19.4134 25.0865L19.2534 25.2477L17.28 24.4419L18.56 26.0535L18.0267 26.8055C17.92 26.913 17.92 27.0741 18.0267 27.1816L18.56 27.5576L19.0934 27.3427H19.2C19.2 27.4502 19.1467 27.7725 19.0934 27.8262L18.1867 27.665L17.1734 28.2022C16.6934 28.5245 16.5334 29.1692 16.8 29.6526L16.9067 29.9212L17.0667 30.2436L17.44 30.0824C17.3334 30.4584 17.3867 30.8345 17.6 31.1031L17.8134 31.3717L18.08 31.7477L18.4 31.4254C18.6134 31.2105 18.7734 30.9956 18.88 30.727L18.9334 30.5121L18.7734 30.351V30.2973L18.9334 30.0287L20.16 30.2973L20.4267 30.351L20.5867 30.0824L20.6934 29.9212C20.6934 29.8675 20.6934 29.8675 20.7467 29.8675H20.9067C21.3334 29.975 21.76 29.975 22.1867 30.0287C22.4534 30.0287 22.7734 30.0287 23.04 29.9212L23.7334 30.727L23.3067 31.9626V32.0163C22.72 32.0163 22.1334 32.2849 21.7067 32.7146C21.0667 32.07 20.5867 31.9626 18.8267 31.9626C16.6934 31.9626 15.3067 30.727 15.3067 28.7394V23.9047H28.16V28.7394C28.16 30.351 27.1467 31.6403 25.7067 31.9626ZM28.48 16.1155C28.2667 16.6526 28.16 17.1898 28.1067 17.7807V21.4336C27.6267 21.3262 27.3067 20.9502 27.2534 20.4667V20.3055H27.0934C26.8267 20.3055 26.56 20.1444 26.3467 19.9295C26.1334 19.6609 25.9734 19.2849 25.9734 18.9626C25.76 19.3386 25.76 19.8221 26.0267 20.1981C26.24 20.4667 26.56 20.6279 26.88 20.6816C26.9867 21.3262 27.4667 21.8097 28.1067 21.8634V23.6361H25.8667C25.28 23.3138 25.0134 22.6155 25.28 22.0245L25.3867 21.8097L25.1734 21.756C24.5334 21.5411 24.16 20.8427 24.3734 20.1981L24.4267 20.0369L24.32 19.8758C23.7334 19.5535 23.4667 18.9088 23.52 18.2642C23.2 18.5865 23.1467 19.0163 23.36 19.3923L22.9334 19.8221C22.3467 19.7146 21.9734 19.2312 21.92 18.6403V18.4791L21.8134 18.4254C21.4934 18.3179 21.2267 18.1031 21.0667 17.7807C20.96 17.5121 20.96 17.2436 21.0134 16.975C21.12 16.975 21.2267 17.0287 21.3334 17.0287H21.6534C22.5067 17.0287 23.36 16.6526 23.9467 16.008L28.48 16.1155ZM25.0134 12.4088L25.8667 12.946L26.08 13.0535C25.6 13.1609 25.2267 13.4295 24.9067 13.7518L24.8534 13.8055C24.8 13.913 24.6934 13.9667 24.64 14.0741L24.5867 14.1279C24.5334 14.2353 24.4267 14.289 24.3734 14.3964L24.32 14.4502C24.2667 14.5576 24.16 14.665 24.1067 14.7725C23.6267 15.7394 22.6667 16.3841 21.6 16.4915C20.5334 16.3841 19.5734 15.7394 19.0934 14.7725C19.04 14.665 18.9334 14.5576 18.88 14.4502L18.8267 14.3964L18.6667 14.1279V14.0741C18.6134 13.9667 18.5067 13.913 18.4534 13.8055L18.4 13.7518C18.08 13.4295 17.6534 13.1609 17.2267 13.0535L17.44 12.946L19.2534 11.8717L21.6534 13.2146L24.0534 11.9254L25.0134 12.4088ZM23.84 11.3345L21.92 12.3551V8.21876L24.5334 7.30554L23.84 11.3345ZM21.6534 7.78901L18.7734 6.66091C19.04 6.07 20.16 5.58653 21.6534 5.58653C23.1467 5.58653 24.2667 6.07 24.5334 6.66091L21.6534 7.78901Z" fill="#918F90"/>
</g>
<defs>
<clipPath id="clip0_29_148">
<rect width="160" height="39" fill="white"/>
</clipPath>
</defs>
</svg>
