<svg width="115" height="26" viewBox="0 0 115 26" fill="none" xmlns="http://www.w3.org/2000/svg">
<g clip-path="url(#clip0_2194_231)">
<path d="M12.2768 24.4569V4.90581H19.1298V0.39679H0.337402V4.90581H7.2256V24.4569H12.2768Z" fill="black"/>
<path d="M32.646 24.8898C39.781 24.8898 44.974 19.6954 44.974 12.4449C44.974 5.19439 39.781 0 32.646 0C25.546 0 20.353 5.19439 20.353 12.4449C20.353 19.6954 25.546 24.8898 32.646 24.8898ZM32.646 20.3447C28.301 20.3447 25.51 16.9178 25.51 12.4449C25.51 7.93587 28.301 4.54509 32.646 4.54509C36.991 4.54509 39.816 7.93587 39.816 12.4449C39.816 16.9178 36.991 20.3447 32.646 20.3447Z" fill="black"/>
<path d="M52.0822 0.39679H47.0312V7.14228C47.0312 12.481 49.7862 16.016 55.7912 16.016C57.5932 16.016 59.3593 15.6914 60.8783 15.2224V24.4569H65.8942V0.39679H60.8783V10.7134C59.6423 11.2184 58.0872 11.507 56.3922 11.507C53.6722 11.507 52.0822 10.2806 52.0822 7.14228V0.39679Z" fill="black"/>
<path d="M90.7408 24.4569L80.7448 11.6874L90.1058 0.39679H83.9238L75.5868 11.1463V0.39679H70.5708V24.4569H75.5868V17.0621L77.4238 14.8257L84.5598 24.4569H90.7408Z" fill="black"/>
<path d="M115 24.4569L105.922 0.39679H99.634L90.52 24.4569H96.243L97.727 20.3808H107.829L109.277 24.4569H115ZM106.452 15.8717H99.104L102.778 5.51904L106.452 15.8717Z" fill="black"/>
</g>
<defs>
<clipPath id="clip0_2194_231">
<rect width="115" height="26" fill="white"/>
</clipPath>
</defs>
</svg>
