<svg width="42" height="42" viewBox="0 0 42 42" fill="none" xmlns="http://www.w3.org/2000/svg">
<path d="M41.7587 0.24027C41.6048 0.0864609 41.3961 0 41.1785 0L20.9993 0.00106641C20.5463 0.00106641 20.179 0.368402 20.179 0.821379V3.16723L12.4034 5.25074C11.9657 5.36804 11.706 5.81782 11.8233 6.25537L15.8533 21.2951L12.367 24.7814C11.9233 24.1335 11.1783 23.7074 10.3356 23.7074H2.46086C1.10389 23.7074 0 24.8114 0 26.1683V39.5391C0 40.896 1.10389 42 2.46086 42H10.3357C11.4885 42 12.4583 41.203 12.724 40.1313L13.6994 40.9819C14.4523 41.6385 15.417 42.0001 16.4161 42.0001H41.1786C41.6316 42.0001 41.9989 41.6327 41.9989 41.1798V0.820312C41.9988 0.602766 41.9125 0.394078 41.7587 0.24027ZM11.1558 39.5391C11.1558 39.9914 10.7878 40.3595 10.3355 40.3595H2.46077C2.00845 40.3595 1.64046 39.9915 1.64046 39.5391V26.1684C1.64046 25.7161 2.00845 25.3481 2.46077 25.3481H5.57788V34.7977C5.57788 35.2506 5.94521 35.618 6.39819 35.618C6.85117 35.618 7.2185 35.2506 7.2185 34.7977V25.3481H10.3356C10.7879 25.3481 11.1559 25.7161 11.1559 26.1684V39.5391H11.1558ZM13.6203 6.62312L20.179 4.86568V7.90535L19.6293 8.05268C19.419 8.10904 19.2399 8.24644 19.1312 8.43486C19.0224 8.62329 18.9929 8.84715 19.0492 9.05732C19.3645 10.2337 18.6638 11.4472 17.4874 11.7625C17.277 11.8189 17.0976 11.9565 16.9889 12.1454C16.8802 12.3341 16.8509 12.5584 16.9078 12.7687L20.1053 24.609H18.4589L17.6105 21.2897C17.5835 21.184 17.5362 21.0866 17.473 21.002L13.6203 6.62312ZM20.179 11.6672V18.5891L18.6829 13.0491C19.3079 12.7264 19.8193 12.2436 20.179 11.6672ZM31.964 40.3594H16.4159C15.8134 40.3594 15.2316 40.1413 14.7774 39.7454L12.7965 38.0177V26.6722L16.3778 23.0909L17.0273 25.6322C17.1202 25.9954 17.4472 26.2493 17.822 26.2493L33.9497 26.2503C34.583 26.2503 35.0981 26.7655 35.0981 27.3988C35.0981 28.032 34.583 28.5472 33.9497 28.5472H25.6859C25.2329 28.5472 24.8656 28.9145 24.8656 29.3675C24.8656 29.8205 25.2329 30.1878 25.6859 30.1878H36.5173C37.1506 30.1878 37.6657 30.703 37.6657 31.3363C37.6657 31.9695 37.1506 32.4847 36.5173 32.4847H25.6859C25.2329 32.4847 24.8656 32.852 24.8656 33.305C24.8656 33.758 25.2329 34.1253 25.6859 34.1253H34.7621C35.3953 34.1253 35.9105 34.6405 35.9105 35.2738C35.9105 35.907 35.3953 36.4222 34.7621 36.4222H25.6859C25.2329 36.4222 24.8656 36.7895 24.8656 37.2425C24.8656 37.6955 25.2329 38.0628 25.6859 38.0628H31.964C32.5973 38.0628 33.1124 38.578 33.1124 39.2113C33.1123 39.8442 32.5972 40.3594 31.964 40.3594ZM40.3583 40.3594H40.3582H34.5046C34.6636 40.0089 34.753 39.6203 34.753 39.2109C34.753 38.8016 34.6636 38.413 34.5046 38.0625H34.7621C36.2999 38.0625 37.551 36.8114 37.551 35.2735C37.551 34.825 37.444 34.4011 37.255 34.0252C38.4359 33.7009 39.3062 32.6185 39.3062 31.3361C39.3062 30.714 39.1013 30.1389 38.7557 29.6746V19.2779C38.7557 18.8249 38.3883 18.4576 37.9354 18.4576C37.4824 18.4576 37.115 18.8249 37.115 19.2779V28.6124C36.9223 28.5702 36.7224 28.5472 36.5171 28.5472H36.4902C36.6493 28.1967 36.7386 27.8081 36.7386 27.3988C36.7386 25.8608 35.4875 24.6098 33.9496 24.6098H32.631C34.0312 24.0093 35.0146 22.6176 35.0146 21C35.0146 18.8353 33.2535 17.0741 31.0888 17.0741C28.9241 17.0741 27.163 18.8353 27.163 21C27.163 22.6176 28.1465 24.0093 29.5466 24.6098H25.0625V9.0122C26.5279 8.69285 27.6842 7.53662 28.0035 6.07113H34.174C34.4932 7.53662 35.6496 8.69285 37.115 9.0122V11.5626C37.115 12.0155 37.4823 12.3829 37.9353 12.3829C38.3882 12.3829 38.7556 12.0155 38.7556 11.5626V8.27982C38.7556 7.82685 38.3882 7.45951 37.9353 7.45951C36.7174 7.45951 35.7267 6.46866 35.7267 5.25082C35.7267 4.79784 35.3593 4.43051 34.9064 4.43051H27.2712C26.8182 4.43051 26.4509 4.79784 26.4509 5.25082C26.4509 6.46874 25.4601 7.45951 24.2423 7.45951C23.7893 7.45951 23.422 7.82685 23.422 8.27982V24.6097H21.8197V1.64153L40.3583 1.64062V40.3594ZM31.0889 23.2852C29.8289 23.2852 28.8038 22.2601 28.8038 21.0001C28.8038 19.7401 29.8289 18.7149 31.0889 18.7149C32.3489 18.7149 33.3741 19.74 33.3741 21C33.3741 22.26 32.349 23.2852 31.0889 23.2852Z" fill="#2867F3"/>
</svg>
