<svg width="34" height="39" viewBox="0 0 34 39" fill="none" xmlns="http://www.w3.org/2000/svg">
<path d="M16.4454 21.0143C16.4858 21.0143 16.5261 21.0143 16.5746 21.0143C16.5908 21.0143 16.6069 21.0143 16.6231 21.0143C16.6473 21.0143 16.6796 21.0143 16.7038 21.0143C19.0702 20.9739 20.9842 20.1421 22.3976 18.551C25.5069 15.046 24.99 9.03728 24.9335 8.46386C24.7316 4.15925 22.6964 2.09981 21.0165 1.13875C19.7647 0.419963 18.3029 0.0323048 16.6715 0H16.615C16.6069 0 16.5908 0 16.5827 0H16.5342C15.6378 0 13.8772 0.145372 12.1892 1.10644C10.4932 2.06751 8.42571 4.12694 8.22381 8.46386C8.16727 9.03728 7.6504 15.046 10.7597 18.551C12.165 20.1421 14.0791 20.9739 16.4454 21.0143ZM10.3802 8.66577C10.3802 8.64154 10.3882 8.61731 10.3882 8.60116C10.6547 2.81052 14.7655 2.18865 16.5261 2.18865H16.5585C16.5746 2.18865 16.5988 2.18865 16.6231 2.18865C18.8036 2.23711 22.5106 3.12549 22.761 8.60116C22.761 8.62539 22.761 8.64962 22.7691 8.66577C22.7771 8.7223 23.3425 14.2141 20.7742 17.1054C19.7566 18.2522 18.3998 18.8176 16.615 18.8337C16.5988 18.8337 16.5908 18.8337 16.5746 18.8337C16.5585 18.8337 16.5504 18.8337 16.5342 18.8337C14.7575 18.8176 13.3926 18.2522 12.3831 17.1054C9.8229 14.2303 10.3721 8.71423 10.3802 8.66577Z" fill="#2867F3"/>
<path d="M33.1712 30.9803C33.1712 30.9722 33.1712 30.9641 33.1712 30.9561C33.1712 30.8914 33.1631 30.8268 33.1631 30.7542C33.1146 29.1551 33.0096 25.4158 29.5046 24.2205C29.4803 24.2124 29.448 24.2043 29.4238 24.1963C25.7814 23.2675 22.7529 21.1677 22.7206 21.1435C22.2279 20.7962 21.5495 20.9173 21.2022 21.41C20.855 21.9026 20.9761 22.581 21.4688 22.9283C21.606 23.0252 24.8204 25.2623 28.8423 26.2961C30.7241 26.9664 30.9341 28.9774 30.9906 30.8188C30.9906 30.8915 30.9906 30.9561 30.9987 31.0207C31.0067 31.7475 30.9583 32.8701 30.8291 33.5162C29.5207 34.2592 24.3923 36.8275 16.5907 36.8275C8.82141 36.8275 3.66072 34.2512 2.3443 33.5081C2.21508 32.862 2.15854 31.7395 2.1747 31.0126C2.1747 30.948 2.18277 30.8834 2.18277 30.8107C2.23931 28.9693 2.44929 26.9583 4.33104 26.288C8.35299 25.2543 11.5673 23.0091 11.7046 22.9202C12.1973 22.5729 12.3184 21.8945 11.9711 21.4019C11.6239 20.9093 10.9455 20.7881 10.4528 21.1354C10.4205 21.1596 7.40808 23.2594 3.74956 24.1882C3.71725 24.1963 3.69302 24.2043 3.6688 24.2124C0.163722 25.4158 0.0587317 29.1551 0.0102744 30.7461C0.0102744 30.8188 0.0102743 30.8834 0.00219806 30.948C0.00219806 30.9561 0.00219806 30.9641 0.00219806 30.9722C-0.00587815 31.3922 -0.0139542 33.5485 0.414085 34.6307C0.494847 34.8407 0.640219 35.0184 0.834047 35.1395C1.07633 35.3011 6.88312 39 16.5988 39C26.3145 39 32.1213 35.293 32.3636 35.1395C32.5493 35.0184 32.7028 34.8407 32.7835 34.6307C33.1873 33.5566 33.1792 31.4003 33.1712 30.9803Z" fill="#2867F3"/>
</svg>
